<?xml version="1.0" encoding="utf-8"?>
<!-- Generator: Adobe Illustrator 22.0.0, SVG Export Plug-In . SVG Version: 6.00 Build 0)  -->
<svg version="1.1" id="Layer_1" xmlns="http://www.w3.org/2000/svg" xmlns:xlink="http://www.w3.org/1999/xlink" x="0px" y="0px"
	 viewBox="0 0 969 1017" style="enable-background:new 0 0 969 1017;" xml:space="preserve">
<style type="text/css">
	.st0{fill:#D2E2F3;}
	.st1{fill:#A9C9E8;}
	.st2{fill:#BFD6EE;}
	.st3{fill:none;}
	.st4{clip-path:url(#SVGID_2_);}
	.st5{fill:#2B3952;}
	.st6{fill:#BDC1C9;}
	.st7{fill:#E13544;}
	.st8{fill:#FFA572;}
	.st9{fill:#D9DBE0;}
	.st10{fill:#BFC3CB;}
	.st11{fill:#B5BAC2;}
	.st12{fill:#E44957;}
	.st13{fill:#D0D3D9;}
	.st14{fill:#CACDD4;}
	.st15{fill:#FFFFFF;}
	.st16{fill:#EAEBEE;}
	.st17{fill:#007E5B;}
	.st18{fill:#B3B8C1;}
	.st19{fill:#FDCE83;}
	.st20{fill:#FFF2DE;}
	.st21{fill:#FEDE79;}
	.st22{fill:#FEE1B4;}
	.st23{fill:#FFF4E4;}
	.st24{fill:#8ED65A;}
	.st25{fill:#D5D7DC;}
	.st26{fill:#FDC978;}
	.st27{fill:#FDBC58;}
	.st28{fill:#FEDCA6;}
	.st29{fill:#DFE1E5;}
	.st30{opacity:0.65;}
	.st31{fill:#ED868F;}
	.st32{fill:#2877C6;}
	.st33{fill:#ACB2BB;}
	.st34{fill:#ABCAE9;}
	.st35{fill:#FDC062;}
</style>
<g>
	<g>
		<path class="st0" d="M836.7,807.9c47.9-10.8,86.7-60.4,106-105.6c19.3-45.2,20.8-96.3,12.9-144.7c-6.7-40.7-20.2-81.2-45.7-113.7
			c-34.4-43.9-91.3-75.5-100.3-130.5c-7.7-46.6,23.2-95,9.2-140.1c-12.4-40.2-55.5-61.8-95.6-74.2C689,88.6,653.7,81.4,618.1,77.9
			c0,0-21.9-2.2-50.8-5c-160.4-12.4-283.1,9.6-402.1,63.5c-33.9,15.4-67.1,38.5-93.9,64.4c-26.7,25.9-46,61.1-46.7,98.4
			C24,334.6,40.1,368.6,62.5,396c20.6,25.3,47.7,48.3,53.7,80.3c7.3,38.9-19.3,75.5-46.1,104.6c-26.9,29.1-57.4,60-60.5,99.5
			c-2.8,35.7,18.9,70.1,48.1,90.8c29.2,20.8,64.9,30.2,100.1,36.7L836.7,807.9L836.7,807.9z"/>
	</g>
	<g>
		<path class="st1" d="M955.5,557.5c-1.1-6.6-2.3-13.2-3.8-19.7v-0.1c-0.4-2-0.9-3.9-1.4-5.9c0-0.1,0-0.1,0-0.2
			c-1-3.9-2-7.8-3.1-11.7c0-0.1,0-0.1-0.1-0.2c-0.5-1.9-1.1-3.7-1.7-5.6c-0.1-0.2-0.1-0.4-0.2-0.5c-0.6-1.8-1.2-3.7-1.8-5.5
			c0-0.1-0.1-0.2-0.1-0.3c-0.7-2-1.4-4-2.1-5.9l0,0c-0.7-1.9-1.4-3.7-2.1-5.5h-55.4v-80.7c-22.3-21.9-46.6-42.5-61.4-67.7H798v79.7
			h-25.4v-36h-81.3V340h-22.2v-29.5h-21.7V340h-22.2v75.8h27.5v51.7H547.5v-75.8H349.8v-121H323V244h-6.3H315v-17.7h-6.2v-24.4h-4.4
			v24.4h-6.2V244h-8v26.7h-3.9h-25.1v161.4h-30.3v-48.4h-95.4V285h-33.1H75.7v70.4H37.2c6.6,14.5,15.4,28.2,25.4,40.5
			c20.6,25.3,47.7,48.3,53.7,80.3c1.6,8.7,1.6,17.3,0.2,25.7c-0.1,0.8-0.3,1.7-0.4,2.5c0,0,0,0,0,0.1c-0.2,0.9-0.4,1.8-0.6,2.7
			c0,0.1,0,0.1,0,0.2c-0.2,0.8-0.4,1.6-0.6,2.3c0,0.2-0.1,0.3-0.1,0.5c-0.2,0.7-0.4,1.4-0.6,2.1c0,0.1-0.1,0.3-0.1,0.4
			c-0.5,1.7-1.1,3.4-1.7,5.1c0,0.1-0.1,0.3-0.1,0.4c-0.3,0.7-0.5,1.4-0.8,2.1c-0.1,0.2-0.1,0.4-0.2,0.6c-0.3,0.7-0.6,1.4-0.9,2.1
			c0,0.1-0.1,0.2-0.1,0.4c-0.7,1.7-1.4,3.3-2.2,4.9c-0.1,0.2-0.2,0.4-0.3,0.6c-0.3,0.6-0.6,1.3-0.9,1.9c-0.1,0.2-0.2,0.4-0.3,0.6
			c-0.4,0.7-0.7,1.4-1.1,2.1c0,0.1-0.1,0.2-0.1,0.2c-0.4,0.8-0.9,1.6-1.3,2.4c-0.1,0.1-0.2,0.3-0.2,0.4c-0.4,0.6-0.7,1.3-1.1,1.9
			c-0.1,0.2-0.3,0.4-0.4,0.7c-0.3,0.6-0.7,1.2-1,1.8c-0.1,0.2-0.2,0.4-0.4,0.6c-8.6,14.2-19.6,27.4-30.7,39.4
			c-26.9,29.1-57.4,60-60.5,99.5c-2.8,35.7,18.9,70.1,48.1,90.8c29.2,20.8,64.9,30.2,100.1,36.7h678.7
			c47.9-10.8,86.7-60.4,106-105.6C961.9,657.1,963.4,606,955.5,557.5z"/>
	</g>
	<g>
		<path class="st2" d="M942.6,702.3c1.7-6.3,4.8-12.1,6.8-18.3c-135.1,0-270.2,0-405.3,0c-178.2,0-356.4-0.1-534.6-0.2
			C8.3,718.3,24,791.5,71,824.5c0,0,114,87,378,25C449,849.5,864.3,996,942.6,702.3z"/>
	</g>
	<g>
		<path class="st3" d="M942.6,702.3c20.6-44.6,20.8-96.3,12.9-144.7c-0.7-4.6-1.6-9.2-2.5-13.7H108.3h-9
			c-8.4,13.3-18.8,25.7-29.2,37c-26.9,29.1-57.4,60-60.5,99.5c-2.8,35.7,18.9,70.1,48.1,90.8c0,0,93.2,78.3,397.2,109.3
			C455,880.5,819.3,969,942.6,702.3z"/>
		<path class="st3" d="M75.7,285h26.7v-40.7h42.9V341H161v-78.7h60.6v50.8h14.6V171.5h50.2v99.2h3.9V244h8v-17.7h6.2v-24.4h4.4v24.4
			h6.2V244h1.6v-30.7h87.8v68.8h62.7v70.8h49.1V234.3h83.6v60.8h53.3V188.5h57.5v182.4h27.2v-97.7h72.5c5.4-33.7,18.3-67.6,8.3-99.9
			c-12.4-40.2-55.5-61.8-95.6-74.2C688.9,88.6,653.6,81.4,618,77.9c0,0-21.9-2.2-50.8-5c-160.3-12.4-283,9.6-402,63.5
			c-33.9,15.4-67.1,38.5-93.9,64.4c-26.7,25.9-46,61.1-46.7,98.4c-0.3,19.5,4.4,38.5,12.5,56.3h38.5V285H75.7z"/>
		<polygon class="st2" points="236.2,171.5 236.2,313 221.5,313 221.5,262.2 160.9,262.2 160.9,341 145.2,341 145.2,244.3 
			102.3,244.3 102.3,285 135.5,285 135.5,383.7 230.9,383.7 230.9,432.1 261.2,432.1 261.2,270.7 286.3,270.7 286.3,171.5 		"/>
		<path class="st2" d="M737.9,370.9h-27.2V188.5h-57.5v106.7h-53.3v-60.8h-83.6V353h-49.1v-70.8h-62.7v-68.8h-87.8v30.7h6.3v26.7
			h26.8v120.9h197.7v75.8h105.3v-51.7h-27.5V340h22.2v-29.5h21.7V340h22.2v51.7h81.3v36h25.4V348h24.3c-6.2-10.6-10.8-22-12.9-34.6
			c-2.2-13.3-1.2-26.7,0.9-40.2h-72.5L737.9,370.9L737.9,370.9z"/>
		<path class="st2" d="M939.2,496.3c-7.3-18.8-16.9-36.6-29.4-52.5c-7.8-9.9-16.7-19.2-26-28.3v80.7L939.2,496.3L939.2,496.3z"/>
	</g>
</g>
<g>
	<g>
		<defs>
			<path id="SVGID_1_" d="M1017-364.5l-1080-0.1V935.6c29,26.3,67.4,50.8,109.3,70.3c48.2,22.4,112.4,36.4,178.7,31.9
				c63-4.2,122.4-24.6,169.6-50c43.5-23.5,82.4-52.9,139.1-63.1c68.8-12.4,136,8.4,189.8,30.5s111.1,47.5,181.7,45.1
				c40.8-1.4,79.9-12.4,111.8-28.4V-364.5z"/>
		</defs>
		<clipPath id="SVGID_2_">
			<use xlink:href="#SVGID_1_"  style="overflow:visible;"/>
		</clipPath>
		<g class="st4">
			<path class="st5" d="M358.3,1066.6h145.8c0.8-24,4.7-130.6,13.2-134.8c8-4,36.7,100.8,45.8,134.8h134.1
				c-1.3-38.7-8.2-232.3-15-256.3c-7.6-26.7-321.1,24.8-321.1,24.8s-3.8,90.5-2.9,142.9C358.9,1019.9,358.5,1054.4,358.3,1066.6z"/>
			<path class="st6" d="M687.4,858.2c-1.7-23.7-3.5-41.5-5.3-47.8c-7.6-26.7-321.1,24.8-321.1,24.8s-0.7,15.8-1.4,37.9
				c19.4,2.7,67.1,7.9,146.2,7.3C604,879.5,666.3,864.3,687.4,858.2z"/>
			<path class="st7" d="M319.1,430.1c0,0,13.6-66,47.3-92.1s91.8-34.6,114.7-38.5c22.9-3.8,111.5,7.6,131.5,14.3
				s54.3,226.8,61.9,293.5c7.6,66.7,21,228.7,21,228.7s-66.7,22.9-189.6,23.8c-106.7,0.8-156.3-8.6-156.3-8.6L319.1,430.1z"/>
			<g>
				<path class="st8" d="M560.2,257.7c0,0,3.8,36.2,3.8,41s15.2,8.6,15.2,8.6s-18.2,67-82.9,59.1c-64.5-7.9-31.3-68.7-34.3-57.2
					l-1.9-50.5L560.2,257.7z"/>
				<path class="st9" d="M477.4,309.2c5.5,1,11,1.1,16.6,1s11.3-0.4,16.9-1.1c5.6-0.6,11.3-1.5,16.8-2.8c4.6-1.1,9.1-2.8,13.4-4.8
					c7.9-3.7,15.4-8.5,22.1-14.1c-1.1-12.3-3-29.7-3-29.7l-100.1,1l1.7,46.1C467,306.5,472.1,308.2,477.4,309.2z"/>
				<g>
					<path class="st8" d="M432.9,77.1c0,0-21.3,37.8-23.6,81.5c-2.4,43.7,4.7,77.9,36.6,99.2s94.5,16.5,112.2,7.1
						c17.7-9.4,42.5-75.6,49.6-103.9c7.1-28.3-13-81.5-41.3-102.7C538,36.9,451.8,36.9,432.9,77.1z"/>
					<path class="st5" d="M409,165.2c3.5-5.2,11.1-17.2,14.4-28c5-16.2,2.6-33.3,0.9-41.5c-6.2,15.2-13.6,38.1-15,62.9
						C409.2,160.8,409.1,163,409,165.2z"/>
					<path class="st8" d="M423.4,178.8c0,0-11.4-31.2-27.4-21.4c-15.9,9.7-6.8,37.8,6.5,50.2s30.6,13.8,35,1.4
						C442,196.6,423.4,178.8,423.4,178.8z"/>
					<g>
						<path class="st10" d="M485.7,165.1c-0.9,3.7-0.4,7.5-0.5,11.2c-0.1,3.6-0.4,7.2-1,10.7s-1.4,7-2.4,10.4c-1,3.5-2.6,7-2.3,10.7
							c0.1,0.7,0.9,1.5,1.6,0.9c3.1-2.3,4.4-6,5.5-9.5c1.2-3.8,2.1-7.6,2.8-11.5s1.1-7.8,1.2-11.8c0.1-4,0.3-8-1.4-11.7
							C488.6,163.1,486.1,163.6,485.7,165.1L485.7,165.1z"/>
					</g>
					<g>
						<path class="st5" d="M525.5,142.5c4.1-0.3,8.4-0.6,12.4,0.1c0.9,0.2,1.8,0.4,2.6,0.6c0.4,0.1,0.7,0.2,1.1,0.4
							c0.2,0.1,0.5,0.2,0.7,0.3c-0.3-0.1-0.2-0.1,0.2,0.1c1.2,0.6,1.6,0.7,2.9,1.3c0.7,0.3,1.7,0.7,2.8,0.8c-0.5-0.1-1-0.3-1.4-0.4
							c1,0.6,1.9,0.9,3.1,1c1,0.1,1.8-0.9,1.8-1.8c0.1-1.3-0.5-2.2-1-3c-0.7-1.3-1.6-2.3-2.9-3.2c-2-1.4-4.4-2.2-6.8-2.6
							c-2.6-0.5-5.4-0.8-8-0.5c-2.8,0.3-5.6,0.9-8.4,1.5C521.9,137.8,522.4,142.7,525.5,142.5L525.5,142.5z"/>
					</g>
					<g>
						<path class="st5" d="M459.2,134c-4.4-0.3-8.8,0-12.9,1.3c-2.2,0.7-4.2,1.5-6.2,2.7c-1,0.6-1.9,1.3-2.7,2.1
							c-0.5,0.5-1,0.9-1.4,1.5c-0.3,0.5-0.4,1.1-0.6,1.7c-0.4,1.5,0.7,2.6,2.1,2.8c0.4,0,0.8,0.1,1.2,0.1c0.7,0,1.2-0.3,1.8-0.5
							c0.7-0.2,1.3-0.3,1.9-0.6c0.1-0.1,1.4-0.6,0.8-0.4c1-0.4,2-0.8,3-1.2c0.4-0.2,0.5-0.2,0.1-0.1c0.2-0.1,0.5-0.2,0.7-0.3
							c0.5-0.2,0.9-0.4,1.4-0.5c3.4-1.2,7.2-2.4,10.7-2.9c1.5-0.2,2.8-1.2,2.8-2.8C462.1,135.2,460.8,134.1,459.2,134L459.2,134z"/>
					</g>
					<path class="st5" d="M590.1,185.3c4.4-4.2,9.8-7.7,14.7-10.7c2.2-1.4,5-1.9,6.8-3.7c9.9-10.2,17.1-39,12.6-55.9
						c-4.2-15.8-19-34.5-37.3-25.7c-1.7,0.8-2,2.6-1.5,4.2c-0.1,0.1-0.3,0.3-0.4,0.4c-16.2,26.5-13.5,62.3,2.9,88.2
						C588.5,182.9,589.2,184.2,590.1,185.3z"/>
					<path class="st11" d="M624.3,115c-4.2-15.8-19-34.5-37.3-25.7c-1.7,0.8-2,2.6-1.5,4.2c-0.1,0.1-0.3,0.3-0.4,0.4
						c-5.7,9.3-9,19.7-10.2,30.5c1.9,0.9,3.8,1.9,5.6,2.9c7.3,3.9,14.3,8.6,19.4,15.1c5.5,7,8.4,15.5,8.8,24.4
						c0.1,2.1,0,4.2-0.2,6.3c1.2-0.5,2.4-1.1,3.3-2.1C621.6,160.6,628.8,131.9,624.3,115z"/>
					<g>
						<path class="st12" d="M623.9,147.9c0,0,21.7-75.7-40.5-119.3c-62.5-43.8-124.6-5.3-142.9,13.6C422.2,61.1,413.9,90,413.9,90
							s66.1-9.4,113.4,2.4C574.6,104.2,623.9,147.9,623.9,147.9z"/>
						<path class="st13" d="M583.5,28.6c-3.7-2.6-7.4-4.9-11.1-6.9c2.2,8,3.4,16.2,3.9,24.5c0.7,12.4-0.2,25.7-7.5,35.8
							c-6.1,8.4-15.8,13.3-25.8,15.4c41.9,15.9,81.1,50.6,81.1,50.6S645.6,72.2,583.5,28.6z"/>
						<path class="st7" d="M590.6,116.6c0,0-56.7-40.7-128.1-39.6c-71.5,1.2-99.3,24.8-102.9,37.8c-3.5,13,16.4,21.3,67.8,24.3
							s93,1.7,114.8-3.6C564,130.2,590.6,116.6,590.6,116.6z"/>
						<path class="st14" d="M557.1,116.5c-28.3,10.2-56.7,13.1-86.8,12.8c-32.4-0.2-59.6,0.1-90.5-9.7c-11-3.5-15-7.7-16-11.5
							c-2.2,2.4-3.6,4.7-4.2,6.7c-3.5,13,16.4,21.3,67.8,24.3s93,1.7,114.8-3.6c21.8-5.3,48.4-18.9,48.4-18.9s-4.9-3.5-13.5-8.4
							C571.5,111.9,563.2,114.3,557.1,116.5z"/>
					</g>
					<path class="st15" d="M581.2,230.2c-3.4-9.9-7.2-22-14.8-29.3c-10.6-10.3-32.5-4.4-45.9-3.1c-17.9,1.7-36.4,0.4-54.2-1.6
						c-17.5-2-30.7-5.9-40.2-9.9c-3.3-0.3-6.7,0.2-8.6,2.6c-5.8,7-5.1,20.1-4.3,28.4c2,21.6,9.9,39.3,26.9,53
						c15.8,12.7,35.2,20.1,55.3,22.1c7.1,0.7,14.2,0.7,21.4,0.2c19.9-1.4,43.9-9.6,56.5-27.3C580.8,254.7,585.2,241.9,581.2,230.2z"
						/>
					<g>
						<path class="st15" d="M554.6,200.2c1.4-0.6,2.7-1.1,4-1.7c1.3-0.7,2.6-1.4,3.8-2.1c2.3-1.3,4.6-2.8,6.9-4.2
							c4.7-2.9,9.3-5.8,14-8.8c2.4-1.5,4.7-3,7.1-4.6c1.9-1.3,3.9-2.7,6-3.5c1.8-0.7,3.2-1,5.2-0.8c1.6,0.1,3.5,1.6,5.4,1.6
							c1.5,0,2.6-1.2,2.6-2.6c0.1-3-2.9-4.8-5.4-5.7c-2.4-0.9-5.2-0.9-7.7-0.3c-5.4,1.3-10.1,5-14.6,8.2c-5,3.5-9.9,6.9-14.8,10.4
							c-2.6,1.9-5.2,3.7-7.7,5.6c-1.1,0.9-2.3,1.8-3.4,2.7c-1.3,1.1-2.4,2.2-3.6,3.4C551.2,199,553,200.9,554.6,200.2L554.6,200.2z"
							/>
					</g>
					<g>
						<path class="st15" d="M568.1,245.2c5.2,0.2,10.7-1.6,15.5-3.4c5.2-1.9,10-4.7,14.3-8.1c3.6-2.8,6.8-6.3,9.3-10.2
							s5.1-9.5,3.2-14.1c-0.6-1.6-3.3-1.9-4.4-0.7c-1.6,1.8-2.1,3.8-3,5.9c-0.7,1.6-1.7,3.4-2.6,4.9c-2.1,3.4-4.8,6.2-7.9,8.8
							c-3.6,3-7.7,5.2-11.9,7.2c-2.2,1.1-4.5,2.1-6.7,3.1s-4.5,1.9-6.5,3.3C566.1,242.9,566.4,245.1,568.1,245.2L568.1,245.2z"/>
					</g>
					<path class="st8" d="M621,174.2c-15.9-9.7-33.7,15.9-33.7,15.9s-6.4,6.1-10.8,13.7c0.5,1,1,2,1.5,3c2.7,5.9,0.5,8.7,1.5,15.1
						c0,0.1,0,0.3,0,0.5c0.4,0.6,0.8,1.3,1.2,1.9c0.3,0.5,0.5,1.1,0.7,1.6c0.1,0.3,0.2,0.6,0.2,0.9c11.4-0.3,30.1-6.9,38.5-14.7
						C633.4,199.9,637,183.9,621,174.2z"/>
					<g>
						<path class="st15" d="M405.7,156.3c4.1,4.7,7.4,10.7,9.4,16.6c1.2,3.5,2,7,2.7,10.6c0.4,1.9,0.7,3.8,1.2,5.7
							c0.5,1.7,1,3.8,2.5,4.8c0.6,0.4,1.5,0.4,2-0.1c1.4-1.3,1.5-3.5,1.7-5.3c0.2-2.1-0.1-4.3-0.5-6.4c-0.7-4-1.8-8.1-3.3-11.9
							c-2.8-6.8-7.1-12.7-13.5-16.4C406.3,152.9,404.4,154.8,405.7,156.3L405.7,156.3z"/>
					</g>
					<g>
						<path class="st15" d="M425.4,211.4c-3,0.4-5.9,1-9,1.1c-2.8,0.1-5.6-0.1-8.3-0.7c-1.1-0.3-2.3-0.6-3.4-0.9l0,0
							c-0.3,0.5-0.5,1-0.6,1.5c-0.3,1.2,0,2.6,0.5,3.8c0.8,0.3,1.6,0.5,2.4,0.7c3.1,0.7,6.5,1.1,9.7,0.9c3.5-0.2,7.4-0.9,9.9-3.5
							C427.6,213.3,427,211.2,425.4,211.4z"/>
					</g>
					<path class="st16" d="M581.2,230.2c-3.4-9.9-7.2-22-14.8-29.3c-1.2-1.2-2.6-2.2-4.1-2.9c0.4,3.6,0.6,7.2,0.5,10.9
						c-0.2,4.6-1.1,9.1-2.4,13.6c-4.1,14.2-11,27.8-22.3,37.6c-11,9.4-24.8,14.1-39,16.3c-14.5,2.2-29.6,2.1-44.1-0.9
						c-4.4-0.9-8.8-2.1-13.1-3.7c15.4,11.9,34.2,18.8,53.5,20.7c7.1,0.7,14.2,0.7,21.4,0.2c19.9-1.4,43.9-9.6,56.5-27.3
						C580.8,254.7,585.2,241.9,581.2,230.2z"/>
				</g>
				<g>
					<path class="st5" d="M531.9,165.3c4.3,1.8,7,6.8,6.8,11.5c-0.1,2.4-0.8,5.5,0.6,7.6c0.8,1.1,1.8,1.3,2.9,1.2
						c1-0.5,1.8-1.5,2.1-2.5c0.9-2.5,0.9-5.6,0.7-8.2c-0.1-2.1-0.4-4.2-1.2-6.2c-2.4-6.7-8.3-9.9-15.2-10.3c-5.1-0.3-9.5,2-12.4,6.1
						c-1.6,2.1-2.8,4.5-3.6,7c-1,3.1-1.2,6.5-1.4,9.8c-0.1,2.2,3.4,2.7,3.9,0.5c0.7-2.9,1.4-5.7,2.5-8.4c1.7-4.1,5-8.1,9.7-8.6
						C529,164.4,530.5,164.7,531.9,165.3z"/>
				</g>
				<g>
					<path class="st5" d="M456.7,159.5c3.8,1.8,6.2,6.8,6,11.5c-0.1,2.4-0.7,5.5,0.5,7.6c0.7,1.1,1.6,1.3,2.6,1.2
						c0.9-0.5,1.6-1.5,1.9-2.5c0.8-2.5,0.8-5.6,0.6-8.2c-0.1-2.1-0.4-4.2-1-6.2c-2.2-6.7-7.4-9.9-13.4-10.3c-4.5-0.3-8.4,2-11,6.1
						c-1.4,2.1-2.5,4.5-3.2,7c-0.9,3.1-1.1,6.5-1.3,9.8c-0.1,2.2,3,2.7,3.4,0.5c0.6-2.9,1.2-5.7,2.2-8.4c1.5-4.1,4.5-8.1,8.6-8.6
						C454.1,158.6,455.5,158.9,456.7,159.5z"/>
				</g>
			</g>
			<g>
				<g>
					<path class="st17" d="M441.1,423.5c0,0,25.9-62.5,39.5-80.5c13.3-17.6,29.1-18.1,31-3.8c1.9,14.3-21,78.6-27.2,90
						s-19.5,22.4-30.5,21C443,448.7,441.1,423.5,441.1,423.5z"/>
					<path class="st18" d="M464.4,397.8c0.3-10.8,12.6-41.4,20.2-59.5c-1.4,1.4-2.7,3-4,4.7c-13.7,18-39.5,80.5-39.5,80.5
						s1.9,25.3,12.9,26.7c11,1.4,24.3-9.5,30.5-21c1.2-2.2,2.9-6.2,5-11.5C480.9,417.7,464.1,410.3,464.4,397.8z"/>
				</g>
				<path class="st19" d="M460.1,431.4c0,0,32.9-15.6,33.8-17.5c1-1.9-0.5-7.6-0.5-7.6s12.4,6.2,16.2,26.2c3.8,20,0,98.6-1.4,121
					s-1,130.1,1.9,149.6c2.9,19.5,1.9,53.4,1.4,62.4c-0.5,9.1-33.4,34.8-49.5,34.3c-16.2-0.5-18.6-119.6-17.2-143.4
					c1.4-23.8-3.3-64.3-5.7-78.1C436.8,564.5,460.1,431.4,460.1,431.4z"/>
				<path class="st20" d="M460.1,431.4c0,0-0.3,1.9-0.9,5.3c3.1-0.6,6.1-1.4,9.1-2.5c7.8-2.7,15.5-6.6,21.9-11.9
					c2.9-2.4,5.7-5.1,7.6-8.3c0.6-1,1.1-2,1.5-3c-3.2-3.4-5.9-4.7-5.9-4.7s1.4,5.7,0.5,7.6C493,415.9,460.1,431.4,460.1,431.4z"/>
				<path class="st9" d="M460.1,431.4c0,0,32.9-15.6,33.8-17.5c1-1.9-0.5-7.6-0.5-7.6s12.4,6.2,16.2,26.2c3.8,20,0,98.6-1.4,121
					s-1,130.1,1.9,149.6c2.9,19.5,1.9,53.4,1.4,62.4c-0.5,9.1-33.4,34.8-49.5,34.3c-16.2-0.5-18.6-119.6-17.2-143.4
					c1.4-23.8-3.3-64.3-5.7-78.1C436.8,564.5,460.1,431.4,460.1,431.4z"/>
				<g>
					<g>
						<path class="st21" d="M376,438.2c0,0,5.3-128.9,9.7-132.4c4.4-3.5,64.6-3.7,68.7,0c4.1,3.7-7.7,129.6-12.6,131.8
							C437,439.9,376,438.2,376,438.2z"/>
						<path class="st22" d="M389.9,423.4c-7.5-4.5,1.3-81,3-103.8c0.6-7.8,2.9-12.7,5.6-15.8c-6.7,0.5-11.6,1.1-12.8,2
							c-4.4,3.5-9.7,132.4-9.7,132.4s61,1.7,65.8-0.6c0.8-0.4,1.8-4.1,2.9-10.2C428.8,427.4,395.5,426.9,389.9,423.4z"/>
					</g>
					<g>
						<path class="st23" d="M439.9,313.3c-0.2,2.3-0.4,4.6-0.6,6.8c-0.2,2.3-0.1,4.6-0.2,6.8c-0.1,4.7-0.1,9.3-0.2,14
							c-0.1,4.6-0.3,9.1-0.6,13.7c-0.1,2.3-0.1,4.6,0.1,7c0.1,2.3,0.9,4.5,1.4,6.7c0.2,0.8,1.5,1,1.8,0.2c0.9-2,2-4.1,2.5-6.3
							c0.5-2.4,0.9-4.8,1-7.3c0.3-4.6,0.4-9.3,0.4-14c0.1-4.7,0-9.3-0.3-14c-0.1-2.3-0.3-4.7-0.6-7c-0.4-2.4-0.9-4.8-1.4-7.1
							C442.9,310.8,440,311.4,439.9,313.3L439.9,313.3z"/>
					</g>
					<g>
						<path class="st23" d="M436.7,377.4c-0.1,1.7-0.2,3.4-0.2,5c0,0.4,0,0.8,0,1.2c0,0.2,0,0.4,0.1,0.6c0,0.2,0,0.2,0,0
							c0,0.2,0,0.4,0.1,0.6c0.1,0.5,0.2,0.7,0.3,1.1c0.1,0.1,0,0.1,0,0c0,0.1,0.1,0.2,0.1,0.4c0.1,0.5,0.4,0.9,0.7,1.3
							c0.3,0.4,1.1,0.4,1.4,0s0.6-0.8,0.7-1.3c0,0,0.1-0.5,0-0.3c0.1-0.2,0.2-0.4,0.2-0.6c0.1-0.2,0.1-0.4,0.1-0.7
							c0-0.2,0-0.4,0.1-0.6c0,0.2,0,0.2,0,0s0-0.3,0.1-0.5c0-0.4,0.1-0.9,0-1.3c0-1.7-0.1-3.4-0.2-5c0-1-0.8-1.9-1.8-1.8
							C437.5,375.6,436.7,376.4,436.7,377.4L436.7,377.4z"/>
					</g>
				</g>
				<g>
					<path class="st24" d="M303.9,363.4c-1,0-21-12.7-27.6-30.2c-5.5-14.3-5.1-27.6,5.7-31.1c10.8-3.5,18.1-6.7,13-16.2
						s-23.8-24.1-13.7-38.4c10.2-14.3,38.1-16.5,46.7,1.9s8.9,21.6,15.2,20.3c6.4-1.3,20.6-13,31.4-0.3s5.1,33.4,0.6,40.7
						c-4.4,7.3-8.9,13-5.1,19.4s9.8,11.1,6.4,24.5c-3.5,13.3-14.3,27-22.2,29.5C346.4,386,303.9,363.4,303.9,363.4z"/>
					<g>
						<path class="st17" d="M310.4,273.5c6.4,12.2,7.4,26.3,9.1,39.7c1.8,14.5,3.9,28.9,5.4,43.4c0.4,4.1,0.8,8.3,1.1,12.4
							c0.2,2.1,0.3,4.1,0.5,6.2c0.1,1.9,0.1,3.9,0.6,5.8c0.2,0.8,1.2,0.5,1.3-0.2c0.4-3.7-0.3-7.6-0.6-11.3c-0.3-3.7-0.6-7.4-1-11
							c-0.7-7.4-1.4-14.9-2.2-22.3c-0.9-7.2-1.7-14.5-2.7-21.7c-1-6.9-1.8-13.8-3.2-20.6c-1.5-7.3-3.7-14.5-7.2-21
							C311.1,272.3,310.1,272.8,310.4,273.5L310.4,273.5z"/>
					</g>
					<g>
						<path class="st17" d="M329.4,371.6c4.9-22.9,9.5-46.3,21.4-66.8c1.6-2.8,3.3-5.6,5.1-8.3c1.9-2.9,3.9-5.7,5.4-8.8
							c0.3-0.6-0.4-1.2-0.9-0.7c-3.9,4.4-6.8,9.8-9.7,14.9c-3,5.2-5.7,10.6-8.1,16.1c-4.6,10.8-7.9,22.1-10.6,33.4
							c-1.6,6.5-2.8,13.2-4.1,19.8C327.7,372.2,329.2,372.6,329.4,371.6L329.4,371.6z"/>
					</g>
					<g>
						<path class="st17" d="M317.3,357.2c-1.6-3.4-2.3-7.2-3.2-10.9c-0.7-3.1-1.8-6-3.2-8.9c-2.8-5.5-6.5-11.6-11.9-14.7
							c-0.5-0.3-1.2,0.3-0.9,0.9c1.7,2.5,3.6,4.7,5.5,7.1c2,2.6,3.8,5.3,5.3,8.2c1.5,2.8,2.9,5.8,4,8.8c1.2,3.3,2,6.8,3.6,9.9
							C316.8,358.1,317.5,357.7,317.3,357.2L317.3,357.2z"/>
					</g>
					<g>
						<path class="st17" d="M341.2,371.5c3.6-6.1,7.7-11.9,12.2-17.3c2.2-2.6,4.5-5.2,6.9-7.6c1.2-1.3,2.5-2.5,3.7-3.7
							s2.5-2.4,3.4-3.9c0.4-0.6-0.3-1.2-0.9-0.9c-1.6,0.7-2.9,1.9-4.2,3.1c-1.3,1.2-2.5,2.4-3.7,3.7c-2.5,2.6-4.8,5.3-7.1,8.1
							c-4.4,5.6-8.3,11.5-11.8,17.7C339,371.6,340.6,372.5,341.2,371.5L341.2,371.5z"/>
					</g>
					<path class="st25" d="M303.9,363.4c-1,0-21-12.7-27.6-30.2c-5.5-14.3-5.1-27.6,5.7-31.1c10.8-3.5,18.1-6.7,13-16.2
						s-23.8-24.1-13.7-38.4c10.2-14.3,38.1-16.5,46.7,1.9s8.9,21.6,15.2,20.3c6.4-1.3,20.6-13,31.4-0.3s5.1,33.4,0.6,40.7
						c-4.4,7.3-8.9,13-5.1,19.4s9.8,11.1,6.4,24.5c-3.5,13.3-14.3,27-22.2,29.5C346.4,386,303.9,363.4,303.9,363.4z"/>
					<g>
						<path class="st25" d="M281.3,247.5c-10.2,14.3,8.6,28.9,13.7,38.4c3,5.6,1.7,9-2,11.5c1.3-0.5,2.4-1,3.5-1.8
							c3.5-2.8,4.6-7.9,3.6-12.2c-1-4.4-3.7-8.2-6.5-11.6s-5.9-6.8-8-10.8c-2.9-5.6-3.1-11.1-1.7-16.4
							C282.9,245.5,282.1,246.5,281.3,247.5z"/>
						<path class="st25" d="M295.3,345.9c-9.5-10.3-17.2-23.5-16.2-37.5c0.1-1.7,0.4-3.4,1.2-4.9c0.2-0.4,0.5-0.7,0.7-1
							c-9.9,3.9-10.2,16.9-4.9,30.8c6.7,17.5,26.7,30.2,27.6,30.2c0,0,9.8,5.2,20.8,10.3C315.5,363.9,304.5,355.8,295.3,345.9z"/>
						<path class="st25" d="M373.1,342.5c1.9,1.9,3.4,4.3,4.4,6.8c1.2-10-3.9-14.3-7.2-19.9c-3.8-6.4,0.6-12.1,5.1-19.4
							c2-3.3,4.3-9.5,5.2-16.3c-1.2,3.7-3.1,7.3-5.6,10.3c-3.1,3.8-7.1,6.9-9.8,11.1c-3.9,6-4.3,14.5,0.1,20.1
							C367.5,338.1,370.6,340,373.1,342.5z"/>
						<path class="st25" d="M343.3,269.7c-6.4,1.3-6.7-1.9-15.2-20.3c-1.4-3.1-3.4-5.6-5.8-7.5c0.4,0.9,0.8,1.8,1.2,2.8
							c2.6,7.4,2.2,15.5,4.7,22.9c1.5,4.5,4.7,9.1,9.4,9.3c5,0.2,8.5-4.4,12-8c1-1.1,2.2-2.1,3.4-3
							C349,267.4,345.6,269.3,343.3,269.7z"/>
					</g>
				</g>
				<g>
					<path class="st8" d="M251.1,430.8c0,0,5.2-70,54.2-84c48.9-14,62.1,19.9,66.5,38.9c4.4,19.1,3.8,54,3.8,54L251.1,430.8z"/>
					<path class="st26" d="M330.2,415.9c-4.8-9.5-4.8-31.4-17.2-44.8c-12.4-13.3-22.6-7.9-24.8-9.8c-1-0.9-0.3-3.9,0.8-7
						c-34,22.7-38,76.5-38,76.5l124.5,8.9c0,0,0.1-5.7-0.1-13.7C367.8,425.7,334.4,424.3,330.2,415.9z"/>
				</g>
				<g>
					<g>
						<path class="st27" d="M175.2,442.5c0,0-30-74.3-41.5-131.5c-11.4-57.2,2.4-81.5,21.4-69.6c19.1,11.9,53.4,104.3,66.2,139.1
							c12.9,34.8,20,59.6,14.3,62.9C230,446.8,175.2,442.5,175.2,442.5z"/>
						<path class="st28" d="M160.2,302.6c-2.4,6.3-4.7,12.5-6.4,19c-2.1,7.8-3.2,15.9-4,23.9c-0.5,4.5-0.8,9.5,1.6,13.4
							c0.5,0.8,1.2,1.7,2.2,1.9c1.7,0.4,3.1-1.3,4-2.8c2-3.4,3.5-7.1,5-10.8c5-12.3,10-24.8,12.4-37.9c0.8-4.6,5-30.4-6.7-23.9
							C163.5,287.9,162,297.8,160.2,302.6z"/>
						<path class="st28" d="M177.2,344c-2.4,6.3-4.7,12.5-6.4,19c-2.1,7.8-3.2,15.9-4,23.9c-0.5,4.5-0.8,9.5,1.6,13.4
							c0.5,0.8,1.2,1.7,2.2,1.9c1.7,0.4,3.1-1.3,4-2.8c2-3.4,3.5-7.1,5-10.8c5-12.3,10-24.8,12.4-37.9c0.8-4.6,5-30.4-6.7-23.9
							C180.6,329.4,179,339.3,177.2,344z"/>
						<path class="st28" d="M197.8,384c-2.4,6.3-4.7,12.5-6.4,19c-2.1,7.8-3.2,15.9-4,23.9c-0.5,4.5-0.8,9.5,1.6,13.4
							c0.5,0.8,1.2,1.7,2.2,1.9c1.7,0.4,3.1-1.3,4-2.8c2-3.4,3.5-7.1,5-10.8c5-12.3,10-24.8,12.4-37.9c0.8-4.6,5-30.4-6.7-23.9
							C201.1,369.3,199.5,379.2,197.8,384z"/>
					</g>
					<path class="st29" d="M133.8,311c11.4,57.2,41.5,131.5,41.5,131.5s54.8,4.3,60.5,1c3.4-2,2.3-11.3-1.8-25.7
						c-11.2,0.7-44.1,0.5-62.9-21.9c-17.2-20.5-32.6-71.2-39.2-95.1C132.5,304,133.1,307.5,133.8,311z"/>
				</g>
				<g>
					<g>
						<g>
							<path class="st17" d="M227.2,396.8c0,0-30.5-83.4-37.6-110.1c-7.1-26.7-7.6-32.4-7.6-32.4s5.7-6.2,13.8-8.6
								c8.1-2.4,11.4,1,11.9,5.2c0.5,4.3,11.4,66.7,17.2,86.2c5.7,19.5,18.6,55.3,18.6,55.3L227.2,396.8z"/>
							<g class="st30">
								<path class="st24" d="M199.6,250.1c0.8,11,2.4,21.8,4.5,32.6c1.1,5.4,2.1,10.8,3.4,16.2c0.6,2.7,1.4,5.4,2.2,8.1
									c0.7,2.5,1,5.3,2.1,7.6c0.1,0.3,0.6,0.1,0.6-0.2c-0.2-2.6-1.3-5.1-1.8-7.7c-0.6-2.7-1.1-5.5-1.7-8.2
									c-1.2-5.3-2.3-10.6-3.2-15.9c-1.9-10.8-3.4-21.8-4.9-32.7C200.6,249.3,199.6,249.5,199.6,250.1L199.6,250.1z"/>
							</g>
							<g class="st30">
								<path class="st24" d="M214.1,325.8c0.4,1.7,0.8,3.4,1.4,5.1c0.5,1.6,1,3.4,2,4.8c0.2,0.3,0.8,0.1,0.7-0.3
									c-0.3-1.7-1.1-3.3-1.7-4.9c-0.5-1.6-1-3.3-1.4-5C214.9,324.9,213.9,325.2,214.1,325.8L214.1,325.8z"/>
							</g>
						</g>
						<path class="st25" d="M215.6,349.5c-13.1-26.7-24.9-81.2-28.6-99.4c-3.1,2.2-5,4.2-5,4.2s0.5,5.7,7.6,32.4
							s37.6,110.1,37.6,110.1l16.2-4.3c0,0-0.9-2.5-2.4-6.6C234.4,379.5,224.7,368,215.6,349.5z"/>
					</g>
					<g>
						<g>
							<path class="st17" d="M246.7,391.1c0,0-14.8-47.6-21.9-90s-10.5-66.7-7.6-72.4s1.9-1.4,8.1-1.9s12.9-2.4,14.3,2.4
								c1.4,4.8,8.1,68.1,9.5,94.3s11,67.2,11,67.2L246.7,391.1z"/>
							<g class="st30">
								<path class="st24" d="M232.2,230.4c0.1,7.6,0.2,15.2,1.6,22.7c0.7,3.7,1.4,7.3,1.9,11c0.3,2.1,0.5,4.2,0.6,6.3
									c0.1,1.6,0.1,3.6,1,5c0.2,0.4,0.8,0.3,0.9-0.1c0.3-1.5-0.2-3.3-0.5-4.8c-0.5-2-0.9-3.9-1.2-5.9c-0.5-3.8-0.7-7.6-0.9-11.5
									c-0.3-7.6-1.6-15.1-2.4-22.7C233.2,229.7,232.2,229.7,232.2,230.4L232.2,230.4z"/>
							</g>
							<g class="st30">
								<path class="st24" d="M239.4,291.6c0.7,5.5,1.4,11,2.2,16.5c0.4,2.8,0.8,5.6,1.2,8.4c0.4,2.8,0.8,5.6,1.7,8.3
									c0.2,0.5,0.9,0.4,0.9-0.1c0.2-2.8-0.2-5.7-0.6-8.4c-0.3-2.7-0.7-5.4-1.2-8.1c-1-5.6-2.1-11.1-3.4-16.6
									C240.1,291.1,239.3,291.1,239.4,291.6L239.4,291.6z"/>
							</g>
						</g>
						<path class="st25" d="M247.3,372c-6.4-10.5-10.5-35.9-16.2-76.9c-4.3-30.5-7.1-57-8.3-68.5c-3.6-0.6-3.3-2.8-5.7,2
							c-2.9,5.7,0.5,30,7.6,72.4s21.9,90,21.9,90l13.3-0.5c0,0-1-4.4-2.5-11.3C254,378.5,250,376.5,247.3,372z"/>
					</g>
					<g>
						<g>
							<path class="st17" d="M261.9,387.7c0,0-3.3-25.7-6.2-51c-2.9-25.3-3.3-64.8-1.4-68.6s7.1,1,11,0.5c3.8-0.5,1.4,11.4,2.4,37.2
								c1,25.7,9.5,77.7,9.1,81C276.2,390.1,261.9,387.7,261.9,387.7z"/>
							<g class="st30">
								<path class="st24" d="M261.3,272.3c-0.5,8.4-0.2,16.7,0.4,25.1c0.3,4.1,0.6,8.1,1.3,12.1c0.3,2.1,0.6,4.2,0.8,6.3
									c0.2,2,0.3,4.1,1,6c0.1,0.2,0.4,0.2,0.4-0.1c0.2-2.1-0.2-4.2-0.5-6.2c-0.2-2.1-0.4-4.2-0.4-6.2c-0.1-4.1-0.4-8.2-0.6-12.2
									c-0.4-8.3-0.7-16.6-1.1-24.8C262.6,271.4,261.4,271.4,261.3,272.3L261.3,272.3z"/>
							</g>
							<g class="st30">
								<path class="st24" d="M265,328.8c0.4,5.9,0.9,11.8,2.4,17.5c0.1,0.2,0.5,0.2,0.5-0.1c-0.5-5.9-1.4-11.6-2.1-17.5
									C265.6,328.4,264.9,328.4,265,328.8L265,328.8z"/>
							</g>
						</g>
						<path class="st25" d="M265.1,362.2c-4.8-11.4-6.7-30.5-7.3-54.6c-0.5-18.1,0.8-33.6,1.5-40.3c-2.1-0.7-4-1.1-5,0.9
							c-1.9,3.8-1.4,43.4,1.4,68.6c2.9,25.3,6.2,51,6.2,51s14.3,2.4,14.8-1c0.1-0.8-0.3-4.8-1.1-10.7
							C273.2,374.4,268.5,370.3,265.1,362.2z"/>
					</g>
				</g>
				<g>
					<path class="st7" d="M230,446.3c0,0-13.8-24.3-12.9-43.8c1-19.5,5.7-29.5,15.7-25.7s15.7,8.6,15.7,8.6s1-19.1,13.8-19.1
						c12.9,0,15.7,12.4,15.7,12.4s11.9-21,24.8-10s18.1,27.6,15.7,46.2S306.1,454,303.7,454C301.5,454,230,446.3,230,446.3z"/>
					<path class="st29" d="M317.4,421.9l-84.7-0.3c0,0-3.8-6.4-6.7-17.8c-2-8.2,0.3-21,1.8-27.7c-6.6,1-9.9,10.5-10.7,26.4
						c-1,19.5,12.9,43.8,12.9,43.8s71.5,7.6,73.8,7.6C306,454,313.9,438.3,317.4,421.9z"/>
					<g>
						<path class="st31" d="M294.6,377.3c3.3,1.8,5.4,5,7,8.4c0.9,1.9,1.7,3.6,2.3,5.5c0.3,1,0.6,1.9,1,2.9c0.4,1.2,0.5,2.4,1.7,3.2
							c-0.3-0.4-0.6-0.8-0.9-1.1c0.1,0.6,0.2,1.1,0.6,1.6s1,0.8,1.6,0.4c0.6-0.3,1-0.9,1.3-1.5c-0.2,0.2-0.5,0.5-0.7,0.7
							c1.2-0.6,1.5-2.1,1.6-3.3c0.2-1.4,0.1-2.9-0.3-4.3c-0.7-2.5-1.9-4.9-3.1-7.1c-2.4-4.3-6-7-10.7-8.3
							C294.1,373.7,292.9,376.4,294.6,377.3L294.6,377.3z"/>
					</g>
					<g>
						<path class="st31" d="M264.4,380.3c0.4,0.4,0.8,0.7,1.2,1.1c0.1,0.1,0.3,0.2,0.4,0.3c0.1,0,0.1,0.1,0.2,0.1
							c0.1,0.1,0.2,0.1,0.3,0.2c0.1,0,0.1,0.1,0.2,0.1c0.2,0.1,0.4,0.2,0.6,0.2c0.1,0,0.2,0,0.3,0c0.2,0,0.4-0.1,0.6-0.2
							c0.1-0.1,0.2-0.3,0.2-0.6c0-0.1,0-0.2,0-0.3c0-0.2-0.1-0.5-0.2-0.7c0-0.1-0.1-0.1-0.1-0.2c-0.1-0.1-0.1-0.2-0.2-0.3
							c0-0.1-0.1-0.1-0.1-0.2c-0.1-0.2-0.2-0.3-0.3-0.4c-0.4-0.4-0.7-0.8-1.1-1.2c-0.2-0.3-0.7-0.4-1-0.4c-0.4,0-0.8,0.2-1,0.4
							c-0.3,0.3-0.4,0.6-0.4,1C264,379.7,264.1,380.1,264.4,380.3L264.4,380.3z"/>
					</g>
					<g>
						<path class="st31" d="M234.5,385.5c0.3,0.3,0.5,0.5,0.8,0.7c0.2,0.1,0.4,0.3,0.7,0.5c0.2,0.2,0.5,0.3,0.7,0.5
							c-0.3-0.2,0.1,0.1,0.1,0.1c0.1,0.1,0.2,0.2,0.4,0.3c0.4,0.4,0.9,0.8,1.3,1.2c0.2,0.2,0.4,0.4,0.6,0.6c0.1,0.1,0.2,0.2,0.3,0.4
							c0.1,0.1,0.4,0.5,0.1,0.1c0.4,0.4,0.7,0.9,1,1.4s0.7,1.1,0.9,1.6c0.1,0.3,0.2,0.5,0.4,0.8c0.1,0.1,0.1,0.2,0.2,0.4
							s0.1,0.2,0-0.1c0.1,0.2,0.1,0.3,0.2,0.5c0.1,0.1,0.1,0.3,0.2,0.4c0.1,0.2,0.4,0.4,0.5,0.7l-0.1-0.1c0.1,0.2,0.2,0.4,0.4,0.5
							c0.1,0.1,0.3,0.2,0.4,0.3c-0.4-0.4-0.5-0.5-0.3-0.2c0.3,0.6,1.1,0.9,1.8,0.7c0.7-0.2,1.1-0.8,1.2-1.5c0-0.3,0-0.2-0.1,0.3
							c0.1-0.1,0.1-0.3,0.2-0.4c0.1-0.2,0.1-0.4,0.1-0.6c-0.1,0.3-0.1,0.3,0,0.2c0.3-0.2,0-1.4-0.1-1.7c-0.2-0.8-0.5-1.5-0.9-2.2
							c-0.6-1.3-1.5-2.5-2.4-3.5c-1-1-2.1-1.9-3.3-2.5c-1.3-0.6-2.7-1.3-4.2-1.1C234.4,383.7,233.8,384.8,234.5,385.5L234.5,385.5z"
							/>
					</g>
				</g>
				<g>
					<g>
						<path class="st32" d="M374.1,440.6c16.7,0,33.4,0,50.1,0c9.6,0,19.3-0.1,29-0.1c-0.2-6.9-1.8-26.7-12.7-31.9
							c-13.2-6.4-21.9-7.6-21.9-7.6v-17.8h-34.7V401c0,0-8.6,1.3-21.9,7.6c-11,5.3-12.5,25.5-12.7,32.2
							C357.6,440.5,365.8,440.6,374.1,440.6z"/>
						<path class="st29" d="M424.2,440.6c9.6,0,19.3-0.1,29-0.1c-0.1-3.3-0.5-9.5-2.1-15.7h-91.5c0,0-0.1-4.1,1.3-8.9
							c0.9-3.1,3.3-6.4,6-9.5c-1.5,0.6-3.1,1.4-4.7,2.2c-11,5.3-12.5,25.5-12.7,32.2c8.2-0.3,16.5-0.2,24.8-0.2
							C390.8,440.5,407.5,440.6,424.2,440.6z"/>
					</g>
					<path class="st33" d="M418.6,394.7v-11.6h-34.7v12.1c3.1,1,10.2,2.9,17.9,2.8C408.2,397.9,414.6,396.1,418.6,394.7z"/>
					<g>
						<path class="st34" d="M381.3,391c0,0-4.3-19.4,2.4-24.2c6.7-4.8,33.6-3.4,36.7,1c4,5.7,0,23.2,0,23.2s-8.2,2.3-19.8,2.3
							C392.5,393.3,381.3,391,381.3,391z"/>
						<g>
							<path class="st15" d="M383.9,370.4c5.9,1.4,12,1.7,18,1.6c3,0,6-0.2,8.9-0.5c2-0.2,5.5-0.2,6.7-1.9c0.3-0.4-0.1-0.8-0.5-0.9
								c-1.1-0.1-2.3,0.6-3.5,0.8c-1.3,0.2-2.6,0.3-3.9,0.5c-2.8,0.2-5.6,0.4-8.4,0.3c-5.7,0-11.4-0.8-17-1.6
								C383.3,368.5,382.8,370.1,383.9,370.4L383.9,370.4z"/>
						</g>
					</g>
				</g>
				<path class="st19" d="M463.6,780.4c-1.7-10.9-4.9-21.9-6.4-32.3c-1.6-11.7-0.2-23.6,0.5-35.3c0.7-12.6,1-25.3-0.3-37.9
					c-0.7-7.1-2.1-14-2.7-21.1c-0.6-7.1-0.9-14.2-0.9-21.3c0-14.4,1-28.8,1.6-43.2c0.5-12.9,1.2-25.8,2.5-38.7
					c1.3-13.2,2.9-26.4,4.1-39.6c0.5-5.7,1-11.5,1.3-17.3c0-1.6-0.1-2.9-0.1-3.8c-0.5-18.2-2.2-44.1-2.9-54.2
					c-0.2-0.9-0.3-1.7-0.5-2.6c-0.1-0.2,0.2-0.4,0.3-0.3c-0.1-0.8-0.1-1.3-0.1-1.3s-72.4-0.6-98.5-0.6c-26,0-102.3-1.3-127.1-2.5
					c-24.8-1.3-67.3-1.3-68.6,1.9s-16.5,50.8-10.8,87s11.4,73.7,10.8,87c-0.6,13.3,0,66.7-4.4,92.7s-9.7,88.1,12.1,93.4
					c8.2,2,111.8,10.8,163.3,12.1c51.5,1.3,120.7,0.6,125.1-2.5C462.7,799.4,463.3,792.2,463.6,780.4z"/>
				<path class="st35" d="M457.8,709.9c0.7-12.6,1-25.3-0.3-37.9c-0.7-7.1-2.1-14-2.7-21.1c-0.6-7.1-0.9-14.2-0.9-21.3
					c0-14.4,1-28.8,1.6-43.2c0.5-12.9,1.2-25.8,2.5-38.7c1.3-13.2,2.9-26.4,4.1-39.6c0.5-5.7,1-11.5,1.3-17.3c0-1.6-0.1-2.9-0.1-3.8
					c-0.5-18.1-2.2-43.7-2.9-54c-0.2,0-0.5,0-0.7,0c-1.6,0-3.1-0.1-4.6-0.1c1,5.7,2,10.9,2.1,13.8c0.9,26.4-1.4,52.7-3.8,78.9
					c-2.9,32.7-5.9,65.4-8.8,98.2c-0.3,2.8-0.6,5.7-2.3,8c-1.6,2.1-4.3,3.2-6.8,4.2c-32.6,12.5-68.1,17.7-103,14.9
					c31.6,12.1,66.5,11.8,100.1,8.7c6.6,5.2,6.3,16.1,1.1,22.7c-5.2,6.6-13.8,9.7-22.1,11.1c-5.9,1-13.8,3.5-13.2,9.5
					c14.7-1,32-0.7,40.5,11.2c3.5,4.9,4.8,11.1,6,17.1l6,29.6c0.8,4.2,1.7,8.6,0.6,12.7c-3.3,12-19.3,13.8-31.7,13.2
					c-23.4-1.1-46.9-2.3-70.3-3.4c-30.3-1.5-60.7-3-91-4.5c-18.4-0.9-37.2-1.9-54.4-8.5c-8.3-3.2-16.4-8-21.4-15.3
					c-5.1-7.3-6.4-17.7-1.6-25.2c6.4-9.9,20-11.2,31.7-12.3c26.5-2.5,52.6-8.8,77.3-18.8c-22.1,2.6-44.5,2.9-66.7,0.9
					c-10.3-0.9-22-3.3-27-12.3c-5.3-9.7-0.9-23.9-9.3-31.1c13.3-5.9,26.7-11.8,40-17.8c-14.2,1.6-31.4,2-39.7-9.7
					c-9.8-13.7,0.2-33-3.8-49.3c-1.5-6.3-5.1-11.9-8.2-17.7c-7.5-14.3-11.8-30.3-12.5-46.4c-0.4-8.3,0.2-16.7,0.8-25
					c1.5-21.4,3-42.9,4.6-64.3c-1.4,0.3-2.3,0.7-2.5,1.1c-1.3,3.2-16.5,50.8-10.8,87s11.4,73.7,10.8,87c-0.6,13.3,0,66.7-4.4,92.7
					s-9.7,88.1,12.1,93.4c8.2,2,111.8,10.8,163.3,12.1c51.5,1.3,120.7,0.6,125.1-2.5c0.7-0.5,1.2-7.6,1.6-19.5
					c-1.7-10.9-4.9-21.9-6.4-32.3C455.6,733.5,457.1,721.6,457.8,709.9z"/>
				<path class="st20" d="M460.1,431.4c0,0-72.4-0.6-98.5-0.6c-26,0-102.3-1.3-127.1-2.5c-24.8-1.3-67.3-1.3-68.6,1.9
					c-0.2,0.4-0.6,1.5-1.1,3.3l295.6,3C460.3,433.4,460.1,431.6,460.1,431.4z"/>
			</g>
			<g>
				<path class="st32" d="M208.7,607.3c-1.9-2-4.8-3-7.2-4.1c-6.1-2.7-14.9-3-26.1-0.4c1.8-0.8,6.1-3.1,8-3.6
					c3.7-1.1,7.3-1.7,11.1-2.2c3.7-0.5,8-0.8,11.2-2.8c3-1.9,3.7-5.8,2.1-8.9c-1.7-3.4-5.9-4.7-9.4-5.7c-8.1-2.4-17.4-1.9-25.2,1.2
					c-2.8,1.1-5.4,2.6-8,4.2c2.5-2.1,5.1-3.9,7.9-5.4c6.7-3.6,17.2-4.7,19.8-13.1c0.4-1.2,0.4-2.6-0.1-3.8c-0.7-1.5-2.3-2.7-3.8-3.4
					c-6.6-3.3-14.8-1.7-21.4,0.7c-3.8,1.4-7.8,3.4-11.2,6c-8.7,7.6-14.1,19.3-11.1,30.8c0.5,1.8,1.1,3.6,0.9,5.5
					c-0.2,1.9-1,3.7-1.6,5.5c-0.9,3-1.1,6.1,1.1,8.6c1.1,1.2,2.6,2,3.1,3.7c0.4,1.3,0.4,2.8,0.3,4.2c-0.2,2.7-0.8,5.6,0.3,8.2
					c0.8,1.8,2.3,2.3,3.5,3.7c1.3,1.5,0.2,3.7,0.1,5.5c-0.3,3,0.3,6.1,1.3,9c1.8,5.3,5.8,11.6,12.1,11.4c0.1-0.1,0.1-0.2,0.2-0.3
					c0.8-1.6,1.6-3.1,2.4-4.6c0.2-0.5,0.5-0.9,0.7-1.4c1-1.7,2-3.3,3.2-4.8c0.6-0.7,1.3-1.4,1.9-2.1c1.2-1.3,2.5-2.5,4-3.5
					c3.7-2.6,8.1-4,12.3-5.3c4-1.3,8.1-2.6,11.6-5c1.4-1,2.8-2.1,3.7-3.7c1-6.3-8.2-7.7-13-8.3c-3.8-0.5-7.5-0.7-15.8,1.9
					c-0.4,0.1-0.6-0.4-0.3-0.6c2.8-1.8,5.9-3.5,9.1-4.7c3.1-1.2,7.8-1.5,11.1-2.1c1.6-0.3,3.2-0.5,4.9-0.6c1.4-0.1,2.9-0.1,4.3-0.6
					c2.3-0.7,3.6-2.7,3.8-5C210.4,609.9,209.7,608.4,208.7,607.3z"/>
				<g>
					<path class="st6" d="M207.7,585.2c1.6,3.1,0.9,7-2.1,8.9c-3.2,2-7.5,2.4-11.2,2.8c-3.8,0.5-7.5,1.1-11.1,2.2
						c-1.9,0.6-6.1,2.8-8,3.6c11.1-2.6,20-2.2,26.1,0.4c0.1,0,0.2,0.1,0.2,0.1c-0.1-0.2-0.2-0.3-0.2-0.5c-0.5-1.7,1.6-3.8,3.2-4.5
						c2.7-1.2,5.5-3.1,6.2-6c0.8-3-0.9-6.1-3.3-8c-0.4-0.3-0.8-0.6-1.2-0.8C206.9,583.9,207.4,584.5,207.7,585.2z"/>
					<path class="st6" d="M189,559.2c1.5,0.7,3.1,1.9,3.8,3.4c0.5,1.2,0.5,2.5,0.1,3.8c-2.6,8.4-13.2,9.5-19.8,13.1
						c-2.8,1.5-5.4,3.4-7.9,5.4c2.5-1.7,5.2-3.1,8-4.2c7.5-3,16.4-3.5,24.2-1.5c-1.4-0.8-2.6-1.8-2.8-3.3c-0.4-2.7,1.6-5.2,1.3-8.1
						c-0.3-2.5-1.6-5-3.2-6.9c-2.3-2.6-4.9-3.4-7.6-3.2C186.3,558.1,187.7,558.5,189,559.2z"/>
					<path class="st6" d="M212.2,610.9c-0.7-2.3-2.7-3.8-5-4.9c0.6,0.4,1.1,0.8,1.5,1.3c1.1,1.1,1.7,2.6,1.9,4.1
						c-0.2,2.3-1.5,4.3-3.8,5c-1.4,0.4-2.9,0.5-4.3,0.6c-1.6,0.1-3.2,0.3-4.9,0.6c-3.2,0.5-8,0.9-11.1,2.1c-3.1,1.2-6.3,2.8-9.1,4.7
						c-0.3,0.2-0.1,0.8,0.3,0.6c8.3-2.7,12-2.4,15.8-1.9c1.9,0.2,4.6,0.6,7,1.4c0.6-0.9,2.1-2.1,2.7-2.5c2.2-1.5,4.6-2.8,6.5-4.7
						C211.7,615.2,212.9,613.5,212.2,610.9z"/>
					<path class="st6" d="M206.5,629.1c0.2,0.6,0.2,1.4,0.1,2.2c-0.8,1.5-2.2,2.7-3.7,3.7c-3.5,2.3-7.6,3.7-11.6,5
						c-4.3,1.3-8.6,2.7-12.3,5.3c-1.5,1-2.8,2.2-4,3.5c-0.7,0.7-1.3,1.4-1.9,2.1c-1.2,1.5-2.3,3.1-3.2,4.8c-0.3,0.5-0.5,0.9-0.7,1.4
						c-0.9,1.5-1.7,3-2.4,4.6c-0.1,0.1-0.1,0.2-0.2,0.3c-0.2,0-0.3,0-0.5,0c0.1,0.2,0.2,0.4,0.3,0.6c2.9-5.3,7.3-9.9,12.6-12.8
						c4.9-2.8,17.1-5.7,24.2-10.8c2.8-2,5.4-4.1,4.2-8.6C207.1,629.9,206.8,629.5,206.5,629.1z"/>
				</g>
			</g>
			<path class="st6" d="M685.2,716.9c-2.6-29.1-5.4-58.8-7.9-83.1c-30.9-11.4-87.1-32.1-114.3-42.1c-38.6-14.3-82.9-25.7-82.9-25.7
				l-47.6,39.2c0,0,9.7,15.6,32.5,22.8c22.9,7.1,55.1,13.8,70.8,16.7C549.2,647,653.3,700.4,685.2,716.9z"/>
			<path class="st8" d="M549.7,627.4c0,0,109.6,48.6,155.3,58.1s62.9-16.8,70.5-47.6c10.1-41-26.7-164.8-35.3-179.1
				s-103.9,25.7-103.9,25.7s45.7,95.3,41,104.8c-4.8,9.5-114.3-22.9-114.3-22.9L549.7,627.4z"/>
			<path class="st32" d="M574,565.9c0,0-26-8.2-36.7-22.9s-17.3-32.5-16.8-42.7c0.4-10.2-1.3-22.9-7.6-23.5
				c-8.5-0.8-14.6,15.9-16.8,28c-2.2,12.1,0,26,0,26s-27.5-14.4-43.5-14s-15.9,13.4-12.4,18.3c3.6,4.9,8.7,8,8.7,8s-16.8-4.3-19.4,7
				c-2.6,11.4,10.7,16.7,10.7,16.7s-11.6-1.6-12.1,9.8c-0.5,9.8,11,15.5,11,15.5s-7.8-3.2-7.9,8.3c-0.1,8.6,21,17.5,38.8,19.3
				c16.9,1.7,31,0.9,46.6,4.9c15.6,4,40.1,11.1,42.3,11.1s8-14.6,12.3-33.6C575.7,581.9,574,565.9,574,565.9z"/>
			<path class="st7" d="M580.8,308.2c0,0,37.5-0.6,76.9,21s69,79.2,76.9,98.5c14.3,34.9,22.9,66.4,22.9,66.4s-39.4,9.5-61,17.8
				c-21.6,8.3-50.8,26-50.8,26s-31.8-68.3-48.3-122.9C580.8,360.3,580.8,308.2,580.8,308.2z"/>
			<polygon class="st15" points="539.6,449.2 539.6,461.9 615.8,460.6 615.1,446 			"/>
		</g>
	</g>
</g>
</svg>
