<?xml version="1.0" encoding="utf-8"?>
<!-- Generator: Adobe Illustrator 22.0.0, SVG Export Plug-In . SVG Version: 6.00 Build 0)  -->
<svg version="1.1" id="Layer_1" xmlns="http://www.w3.org/2000/svg" xmlns:xlink="http://www.w3.org/1999/xlink" x="0px" y="0px"
	 viewBox="0 0 794 896" style="enable-background:new 0 0 794 896;" xml:space="preserve">
<style type="text/css">
	.st0{display:none;opacity:0.34;fill:#7CD9DC;enable-background:new    ;}
	.st1{fill:#EBEBEB;}
	.st2{fill:#E1E1E1;}
	.st3{fill:#1A2E35;}
	.st4{fill:#F5F5F5;}
	.st5{fill:#FFFFFF;}
	.st6{fill:#ECECEC;}
	.st7{fill:#33BFCB;}
	.st8{opacity:0.6;}
	.st9{fill:#FF4F5B;}
	.st10{opacity:0.4;}
	.st11{fill:#375A64;}
	.st12{fill:#FFBF9D;}
	.st13{fill:#FF9A6C;}
	.st14{opacity:0.3;}
</style>
<path class="st0" d="M942-457l-1080-0.1V843.1c29,26.3,67.4,50.8,109.3,70.3c48.2,22.4,112.4,36.4,178.7,31.9
	c63-4.2,122.4-24.6,169.6-50c43.5-23.5,82.4-52.9,139.1-63.1c68.8-12.4,136,8.4,189.8,30.5s111.1,47.5,181.7,45.1
	c40.8-1.4,79.9-12.4,111.8-28.4V-457z"/>
<g>
	<g>
		<g>
			<g>
				<g>
					<g>
						<g>
							<path class="st1" d="M615,884.5c-45-20.8-63.4-71-70.1-117.8c-1.1-7.8-3.5-15.9-1-23.4s10.3-13.7,17.8-11.7
								c6.3,1.7,10,7.9,14.2,12.9c5.6,6.6,13.1,11.6,21.4,14.1c5.4,1.7,11.8,2.2,16.2-1.4c6-4.9,5.2-14.3,3.7-22
								c-2.7-14.4-5.4-28.8-8-43.2c-1.4-7.7-2.9-15.6-1.8-23.4c1.1-7.8,5.2-15.5,12.2-18.9s16.9-0.8,19.8,6.5c1.2,3,1.2,6.4,1.9,9.6
								c0.8,3.2,2.9,6.5,6.1,6.8c3.3,0.4,6-2.4,7.9-5.1c6.6-9.2,10.2-20.3,13.5-31.2c3.3-10.9,6.3-22,12.1-31.9
								c5.7-9.8,14.5-18.4,25.5-21s24,2.1,28.7,12.5c4.8,10.4,0.4,22.6-5,32.7c-7.9,14.9-18,28.7-29.8,40.7
								c-2.1,2.2-4.4,4.5-4.9,7.5c-0.8,5.5,5.1,9.7,10.4,10.5c6.1,0.9,12.3-0.8,18.4-1.2c6.2-0.4,13.2,1.1,16.5,6.4
								c4.6,7.3-0.5,16.8-6.1,23.4c-11.1,13.2-24.4,24.5-39.2,33.1c-5.3,3.1-11,6-14.8,10.8c-3.9,4.8-5.4,12.3-1.6,17.2
								c3.8,5,11.2,5.4,16.9,3.2c5.8-2.2,10.5-6.4,15.8-9.5c9.9-5.9,23.8-7.7,32.2,0.3c5.6,5.2,7.5,13.6,6.5,21.2
								s-4.4,14.6-8.3,21.2c-13.4,23-32.4,43.1-55.5,56C663.5,882.7,641.1,889.1,615,884.5"/>
						</g>
					</g>
				</g>
			</g>
		</g>
		<g>
			<g>
				<g>
					<g>
						<g>
							<g>
								<path class="st2" d="M621.8,853.2c2.6-24.7,7.8-51.6,14.1-79.6c1.6-7,3.2-13.9,4.8-20.7c1.6-6.8,3.2-13.5,5.1-20
									c3.8-13,8.5-25.2,13.3-36.6s9.7-22.1,14.5-32.1c4.7-9.9,9.3-19.1,13.9-27.3c9-16.4,17.9-28.8,24.3-37
									c3.2-4.1,5.8-7.3,7.6-9.4c0.9-1,1.5-1.8,2-2.4c0.5-0.5,0.7-0.8,0.7-0.8s-0.2,0.3-0.6,0.9c-0.5,0.6-1.1,1.4-1.9,2.5
									c-1.7,2.2-4.2,5.3-7.3,9.5c-6.3,8.3-14.9,20.7-23.8,37.2c-4.5,8.2-9,17.4-13.7,27.3c-4.7,10-9.6,20.6-14.3,32.1
									c-4.7,11.4-9.4,23.6-13.2,36.5c-1.9,6.4-3.5,13.1-5,19.9c-1.6,6.8-3.2,13.7-4.8,20.7c-6.3,27.9-11.5,54.7-14.2,79.4"/>
							</g>
						</g>
					</g>
				</g>
			</g>
		</g>
		<g>
			<g>
				<g>
					<g>
						<g>
							<g>
								<path class="st2" d="M646.1,732.8c-0.1,0-0.6-1.1-1.3-3.2c-0.8-2.1-1.8-5.1-3.1-8.8c-2.5-7.5-5.5-18-8.9-29.6
									c-3.3-11.6-6.5-22-9.1-29.4c-1.3-3.7-2.3-6.7-3.1-8.8c-0.8-2.1-1.1-3.2-1-3.3c0.1,0,0.6,1.1,1.6,3.1c0.9,2,2.1,5,3.5,8.7
									c2.8,7.4,6.2,17.8,9.6,29.4c3.3,11.4,6.2,21.8,8.5,29.7c1,3.6,1.9,6.6,2.6,9C645.9,731.6,646.2,732.8,646.1,732.8z"/>
							</g>
						</g>
					</g>
				</g>
			</g>
		</g>
		<g>
			<g>
				<g>
					<g>
						<g>
							<g>
								<path class="st2" d="M742.3,696.4c0,0.1-1.4,0.5-3.9,1.2s-6.1,1.7-10.6,3c-8.9,2.6-21.1,6.7-34.4,11.7
									c-13.3,5.1-25.1,10.2-33.5,14.1c-4.2,1.9-7.6,3.6-10,4.7c-2.3,1.1-3.7,1.7-3.7,1.6s1.2-0.9,3.4-2.2c2.3-1.3,5.6-3.1,9.8-5.2
									c8.3-4.2,20.1-9.5,33.5-14.6c13.3-5.1,25.6-9,34.7-11.3c4.5-1.2,8.2-2,10.8-2.6C740.8,696.5,742.2,696.3,742.3,696.4z"/>
							</g>
						</g>
					</g>
				</g>
			</g>
		</g>
		<g>
			<g>
				<g>
					<g>
						<g>
							<g>
								<path class="st2" d="M622.7,851.1c0,0-0.3-0.3-0.9-1.1c-0.6-0.9-1.4-2-2.3-3.3c-2-2.9-4.8-7.1-8.3-12.4
									c-6.8-10.5-15.8-25.4-25.5-41.9s-18.6-31.4-25.2-42.1c-3.2-5.2-5.9-9.4-7.9-12.6c-0.8-1.4-1.5-2.5-2.1-3.4
									c-0.5-0.8-0.7-1.2-0.7-1.3c0,0,0.3,0.3,0.9,1.1c0.6,0.9,1.4,2,2.3,3.3c2,2.9,4.8,7.1,8.3,12.4c6.8,10.5,15.8,25.4,25.5,41.9
									s18.6,31.4,25.2,42.1c3.2,5.2,5.9,9.4,7.9,12.6c0.8,1.4,1.5,2.5,2.1,3.4C622.5,850.7,622.7,851.1,622.7,851.1z"/>
							</g>
						</g>
					</g>
				</g>
			</g>
		</g>
		<g>
			<g>
				<g>
					<g>
						<g>
							<g>
								<path class="st2" d="M747.2,784.8c0,0-0.4,0.3-1.2,0.8c-1,0.5-2.2,1.2-3.6,2c-3.3,1.8-7.8,4.2-13.3,7.1
									c-11.3,6-26.7,14.5-43.8,23.9s-32.6,17.8-44,23.6c-5.7,2.9-10.3,5.2-13.5,6.7c-1.5,0.7-2.7,1.3-3.7,1.7
									c-0.9,0.4-1.3,0.6-1.3,0.5c0,0,0.4-0.3,1.2-0.8c1-0.5,2.2-1.2,3.6-2c3.3-1.8,7.8-4.2,13.3-7.1c11.3-6,26.7-14.5,43.8-23.9
									s32.6-17.8,44-23.6c5.7-2.9,10.3-5.2,13.5-6.7c1.5-0.7,2.7-1.3,3.7-1.7C746.7,785,747.1,784.8,747.2,784.8z"/>
							</g>
						</g>
					</g>
				</g>
			</g>
		</g>
	</g>
	<g>
		<g>
			<g>
				<g>
					<g>
						<g>
							<g>
								<g>
									<g>
										<g>
											<g>
												<g>
													<g>
														<path class="st3" d="M379.3,888.5H82.8c-35.8-0.2-66.1-30.7-66-66.5L20,75.2c0.2-35.8,29.3-64.8,65.2-64.6L383.1,12
															c35.8,0.2,64.7,29.3,64.6,65.2L444.5,824C444.4,859.7,415.2,888.6,379.3,888.5z"/>
													</g>
												</g>
											</g>
										</g>
									</g>
								</g>
							</g>
						</g>
					</g>
				</g>
			</g>
			<g>
				<g>
					<g>
						<g>
							<g>
								<path class="st4" d="M383.3,40.3L325.5,40c-7.7,0-14.1,6.5-14.1,14.6v10.5c0,8.1-6.3,14.6-14.1,14.6l-112.6-0.5
									c-7.7,0-14-6.6-14-14.7V54c0-8.1-6.2-14.7-14-14.7l-20.3-0.1L85.9,39c-25.1-0.1-45.5,20.1-45.7,45.3l-3.1,728.9
									c-0.1,25.1,20.1,45.5,45.2,45.6l297.3,1.4c25.1,0.1,45.5-20.1,45.7-45.3L428.4,86C428.7,60.8,408.4,40.4,383.3,40.3z"/>
							</g>
						</g>
					</g>
				</g>
				<g>
					<g>
						<path class="st4" d="M257.2,722.3c-0.3,8.8-0.7,17.1-0.9,23.9H299l-5.2-26.2L257.2,722.3z"/>
					</g>
					<g>
						<path class="st4" d="M83.6,733.3l0.4,12.9h168c0.3-7.3,0.6-15.3,0.9-23.6L83.6,733.3z"/>
					</g>
					<g>
						<polygon class="st4" points="295.8,719.9 301.1,746.3 379.8,746.3 378.9,714.6 						"/>
					</g>
					<g>
						<polygon class="st4" points="261.4,351.3 276.3,265 237.3,262.1 237.3,351.3 						"/>
					</g>
					<g>
						<polygon class="st4" points="80.1,685.4 37.8,702 37.6,732 81.3,729.2 						"/>
					</g>
					<g>
						<polygon class="st4" points="79.9,678.7 77.6,598.3 77.5,598.3 77.5,569.9 38.3,574.1 37.8,695.1 79.9,678.6 						"/>
					</g>
					<g>
						<polygon class="st4" points="77.5,506.6 38.6,501.5 38.3,567.7 77.5,563.5 						"/>
					</g>
					<g>
						<polygon class="st4" points="367.7,571.1 366.1,594.2 320.1,599.1 323.6,617.4 375.8,613.4 375.1,587.3 379.2,570 						"/>
					</g>
					<g>
						<polygon class="st4" points="284.8,620.3 321.5,617.5 313.5,576.6 281.5,579.8 						"/>
					</g>
					<g>
						<polygon class="st4" points="285.2,624.5 288,658.6 293,705.4 295,715.7 378.8,710.4 376,617.7 						"/>
					</g>
					<g>
						<path class="st4" d="M141,463.4l3.2,5.5l-64.6,37.7V596l68.2-4.8l131.4-13.3l-4.8-58.6l-125.5-16.4l0.8-6.3l124.1,16.2
							l-8.1-99.1l-122.9,11.8l-0.4-4.2l122.9-11.8l-4.2-51.7H142.9L39.1,376.7l-0.5,118.5l39.3,5.2L141,463.4z M86.3,587.5
							c0,0,0.5-73.7,0-76.4l52.7-28l6.8,100.7L86.3,587.5z"/>
					</g>
					<g>
						<polygon class="st4" points="363.4,571.6 315.7,576.4 319.3,594.9 362.1,590.3 						"/>
					</g>
					<g>
						<path class="st4" d="M257.8,706.6c-0.1,3.9-0.3,7.7-0.4,11.5l35.5-2.2l-1.8-9.2L257.8,706.6z"/>
					</g>
					<g>
						<polygon class="st4" points="181.2,351.3 187.5,322.9 235.2,322.9 235.2,262 86,250.9 86,308.2 39.4,318.7 39.2,370.1 
							142.4,351.3 						"/>
					</g>
					<g>
						<path class="st4" d="M280.8,181.7l-1.3-5.2l57-22.5l-37.1-74.4c-0.7,0.1-1.3,0.2-2,0.2l-63-0.3l1.7,104.1L280.8,181.7z"/>
					</g>
					<g>
						<path class="st4" d="M367.1,141.8L367,40.2L325.5,40c-7.7,0-14.1,6.5-14.1,14.6v10.5c0,5-2.4,9.4-6.1,12l37.1,74.4
							L367.1,141.8z"/>
					</g>
					<g>
						<path class="st4" d="M152.9,146.1l-4.8-106.9l-11.5-0.1l-45.1-0.2l-19.2,95.6L152.9,146.1z M142.7,50l1.5,87.1l-59.9-8.8
							L97.4,50H142.7z"/>
					</g>
					<g>
						<path class="st4" d="M155.1,146.4v0.9c0.1,8.3,0.3,23.4,0.4,39.4l78.5-3.2l-1.7-104.2l-47.5-0.2c-7.7,0-14-6.6-14-14.7V53.9
							c0-8.1-6.2-14.7-14-14.7h-6.6L155.1,146.4L155.1,146.4z"/>
					</g>
					<g>
						<path class="st4" d="M66,133.6l19-94.7c-24.6,0.4-44.5,20.4-44.6,45.2l-0.2,47.2l0.2-1.4L66,133.6z"/>
					</g>
					<g>
						<polygon class="st4" points="79.6,250.4 39.7,247.5 39.4,312.1 79.6,303.1 						"/>
					</g>
					<g>
						<polygon class="st4" points="65.6,135.7 40.2,132.1 39.7,236.8 45.2,237.2 						"/>
					</g>
					<g>
						<polygon class="st4" points="146.2,677.4 146.8,593.4 79.7,598.1 82.1,680.5 						"/>
					</g>
					<g>
						<path class="st4" d="M158.5,658l95.1,45.5c1.1-29.8,2.1-57.6,2.1-59.4l2.1-0.1l1-2c1.4,0.7,1.4,0.7,0.6,21
							c-0.4,11.3-1,26.4-1.5,41.5h32.9l-4.9-45.7l-6.5-78.8l-124.2,12.5L158.5,658z"/>
					</g>
					<g>
						<polygon class="st4" points="391.6,518.5 390.5,507.4 276.5,519.3 281.3,577.7 379.8,567.8 						"/>
					</g>
					<g>
						<polygon class="st4" points="235.2,329.3 192.6,329.3 187.8,351.3 235.2,351.3 						"/>
					</g>
					<g>
						<path class="st4" d="M374,336.8l-106.6-7.4l-4.3,25.2l4.5,54.7L380,398.4L374,336.8z M271.3,354.5l5.7-15.9l92.6,5.9L375,390
							l-100.6,11.9L271.3,354.5z"/>
					</g>
					<g>
						<polygon class="st4" points="385.1,451 380.4,402.7 267.9,413.5 272.1,464.9 						"/>
					</g>
					<g>
						<polygon class="st4" points="81.5,733.5 37.8,736.2 37.6,733.4 37.6,746.3 81.8,746.3 						"/>
					</g>
					<g>
						<path class="st4" d="M427.8,117.8l0.6,1.6l0.1-33.5c0.1-25.1-20.1-45.5-45.2-45.6l-14.2-0.1l0.1,100.7L427.8,117.8z"/>
					</g>
					<g>
						<path class="st4" d="M253.5,705.9l-97.1-46.5l-3.4-66.6l-4.1,0.4l-0.7,86.3L82,682.6l0.1,1.9l0,0l0,0l1.3,44.5L253,718.3
							C253.2,714.2,253.4,710.1,253.5,705.9z M86.3,688.1l92.6-6.5l60.2,27.9l-152.8,8.3V688.1z"/>
					</g>
					<g>
						<path class="st4" d="M400.2,229.6l4-23.6c-34.8-12.4-37.2-48.7-37.1-59.7l-22.7,9l34.2,68.7L400.2,229.6z"/>
					</g>
					<g>
						<polygon class="st4" points="276,512.9 323.3,508 314,466.2 272.6,471.3 						"/>
					</g>
					<g>
						<polygon class="st4" points="374.2,265.7 285.8,265.7 278.4,265.2 268.5,323 373.4,330.3 370.9,305.1 381.3,268 						"/>
					</g>
					<g>
						<path class="st4" d="M372,255.1l1.1-27.6l-34.7-69.7L284.5,179l18.5,76L372,255.1L372,255.1z M336.3,166.2l31.8,60.6
							l-4.6,18.9l-54.5-2l-13.6-57.3L336.3,166.2z"/>
					</g>
					<g>
						<polygon class="st4" points="385.8,588.4 387.4,642.6 425.7,640.5 425.8,642.6 387.4,644.8 389.4,709.7 425.6,707.4 
							425.9,711.7 389.5,714 390.5,746.3 425.8,746.3 426.5,565.2 390.5,568.8 						"/>
					</g>
					<g>
						<path class="st4" d="M153,148.3l-81.1-11.6l-20.3,101l101.7,7.5C153.8,229.7,153.4,181.9,153,148.3z"/>
					</g>
					<g>
						<polygon class="st4" points="286.4,255.1 298.6,255.1 281.3,183.8 236.1,185.6 237.2,251.4 						"/>
					</g>
					<g>
						<path class="st4" d="M37.4,798.1l-0.1,15c0,0.5,0.1,0.9,0.1,1.4V798.1z"/>
					</g>
					<g>
						<path class="st4" d="M155.4,245.4l79.7,5.9l-1.1-65.6l-78.5,3.2C155.7,211.1,155.8,234.7,155.4,245.4z"/>
					</g>
					<g>
						<polygon class="st4" points="385.7,457.4 316.1,465.9 325.5,507.8 389.9,501.1 						"/>
					</g>
					<g>
						<path class="st4" d="M404.5,203.9l4.5-26.4l19.2,1.5l0.2-56.9l-59.2,23.4C368,185.6,393.2,199.6,404.5,203.9z"/>
					</g>
					<g>
						<polygon class="st4" points="381.7,306.1 384.1,331 427.5,334 427.7,282.6 391.4,271.2 						"/>
					</g>
					<g>
						<path class="st4" d="M402.4,519.3L391,566.7l35.6-3.6l0.2-49.7c-10.9-2.9-20.4-5.2-25.6-6.2L402.4,519.3z"/>
					</g>
					<g>
						<polygon class="st4" points="378.4,255.9 427.8,271.5 427.9,243.4 379.4,230.8 						"/>
					</g>
					<g>
						<path class="st4" d="M400.6,500.7c4,0.6,11.5,2.2,26.2,6.1l0.5-108.6l-36.3,3.5L400.6,500.7z"/>
					</g>
					<g>
						<polygon class="st4" points="390.6,397.4 427.3,393.9 427.5,340.5 384.8,337.5 						"/>
					</g>
					<g>
						<path class="st4" d="M408.6,205.3c7,2.1,13.4,3.8,19.4,5l0.1-27l-15.6-1.2L408.6,205.3z"/>
					</g>
					<g>
						<path class="st4" d="M404.3,230.7l23.6,6.1l0.1-24.4c-6.1-1.2-12.7-2.9-19.8-5L404.3,230.7z"/>
					</g>
					<g>
						<path class="st5" d="M425.9,711.7l-0.3-4.3l-36.2,2.3l-1.9-64.9l38.3-2.2l-0.1-2.1l-38.3,2.2l-1.6-54.3l4.7-19.6l36.1-3.6
							v-2.1l-35.6,3.6l11.4-47.4l-1.2-12.1c5.1,1,14.6,3.3,25.6,6.2v-6.6c-14.7-3.9-22.2-5.5-26.2-6.1l-9.6-99l36.3-3.5v-4.3
							l-36.7,3.5l-5.8-59.9l42.7,3v-6.4l-43.4-3l-2.4-25l9.7-34.9l36.3,11.5v-11.2l-49.4-15.6l1-25l48.5,12.5v-6.6l-23.6-6.1
							l3.9-23.3c7.1,2.1,13.7,3.8,19.8,5v-2.2c-6-1.2-12.5-2.8-19.4-5l3.9-23.2l15.6,1.2v-4.3l-19.2-1.5l-4.5,26.4
							c-11.4-4.3-36.5-18.4-35.3-58.4l59.2-23.4v-2.7l-0.6-1.6l-58.5,23.2L369,40.2h-2.1l0.1,101.6l-24.7,9.8l-37.1-74.4
							c-1.7,1.2-3.8,2.1-5.9,2.4l37.1,74.4l-57,22.5l1.3,5.2l-44.6,1.8l-1.7-104.1h-2.1l1.7,104.2l-78.5,3.2
							c-0.1-16.1-0.3-31.1-0.4-39.4v-0.9l0,0l-4.8-107.2h-2.1l4.8,106.9l-80.6-11.6L91.6,39h-5.5c-0.3,0-0.7,0-1,0l-19,94.7
							L40.5,130l-0.2,1.4v0.7l25.4,3.6L45.3,237.2l-5.5-0.4v10.7l39.9,3v52.6l-40.2,9.1v6.6l46.6-10.5V251l149.1,11v61h-47.7
							l-6.3,28.4h-38.8L39.2,370.2v6.5L143,357.8h118.2l4.2,51.7l-122.9,11.8l0.4,4.2l122.9-11.8l8.1,99.1l-124.1-16.2l-0.8,6.3
							l125.5,16.4l4.8,58.6l-131.4,13.3L79.7,596v-89.4l64.6-37.7l-3.2-5.5L78,500.2L38.7,495v6.4l38.9,5.1v56.9l-39.2,4.2v6.4
							l39.2-4.2v28.4l0,0l2.3,80.4l0,0l-42.1,16.5v6.9l42.3-16.6l1.3,43.8L37.7,732v1.4l0.2,2.8l43.7-2.8l0.4,12.8h2.1l-0.4-12.9
							L253,722.6c-0.3,8.3-0.6,16.4-0.9,23.6h4.3c0.3-6.9,0.6-15.1,0.9-23.9l36.5-2.3l5.2,26.2h2.2l-5.3-26.4l83-5.3l0.9,31.6h10.7
							 M257.3,718.1c0.1-3.8,0.3-7.6,0.4-11.5l33.3,0.1l1.8,9.2L257.3,718.1z M295,715.7l-2-10.2l-5-46.8l-2.8-34.1l90.8-6.8
							l2.8,92.7L295,715.7z M315.7,576.4l47.8-4.8l-1.3,18.7l-42.8,4.6L315.7,576.4z M313.5,576.6l8,40.9l-36.7,2.8l-3.3-40.5
							L313.5,576.6z M375.8,613.4l-52.2,3.9l-3.6-18.2l46-5l1.6-23l11.5-1.2l-4.2,17.3L375.8,613.4z M314,466.2l9.3,41.8l-47.3,4.9
							l-3.4-41.6L314,466.2z M325.5,507.8l-9.3-41.8l69.5-8.6l4.2,43.7L325.5,507.8z M373.4,330.3L268.5,323l10-57.9l7.3,0.5h88.4
							l7.1,2.2L371,305L373.4,330.3z M367.1,146.4c-0.1,11,2.3,47.3,37.1,59.7l-4,23.6l-21.7-5.6l-34.2-68.7L367.1,146.4z
							 M338.4,157.7l34.7,69.7L372,255h-69l-18.5-76L338.4,157.7z M281.3,183.8l17.4,71.3h-12.3l-49.1-3.6l-1.1-65.8L281.3,183.8z
							 M234,185.7l1.1,65.6l-79.7-5.9c0.3-10.6,0.3-34.3,0.1-56.5L234,185.7z M71.9,136.6l81.1,11.6c0.4,33.7,0.8,81.4,0.4,96.9
							l-101.7-7.5L71.9,136.6z M276.3,265l-14.9,86.3h-24.1v-89.2L276.3,265z M192.6,329.3h42.6v22h-47.4L192.6,329.3z M263,354.6
							l4.3-25.2l106.6,7.4l6,61.7l-112.5,10.8L263,354.6z M380.4,402.7l4.7,48.4l-113,13.9l-4.2-51.5L380.4,402.7z M276.5,519.3
							l114-11.9l1.1,11.1l-11.8,49.2l-98.4,9.9L276.5,519.3z M285.9,658.8l4.9,45.7h-32.9c0.6-15.1,1.1-30.1,1.5-41.5
							c0.7-20.3,0.7-20.3-0.6-21l-1,2l-2.1,0.1c0.1,1.8-0.9,29.6-2.1,59.4L158.5,658l-3.4-65.5L279.3,580L285.9,658.8z M146.8,593.4
							l-0.7,84.1l-64.1,3l-2.4-82.4L146.8,593.4z M82.2,684.6L82.2,684.6L82.2,684.6l-0.1-2l66.2-3.1l0.7-86.3l4.1-0.4l3.4,66.6
							l97.1,46.5c-0.2,4.1-0.3,8.3-0.5,12.4L83.5,729L82.2,684.6z"/>
					</g>
					<g>
						<polygon class="st6" points="178.9,681.6 86.3,688.1 86.3,717.8 239.1,709.5 						"/>
					</g>
					<g>
						<polygon class="st6" points="369.6,344.5 277,338.6 271.3,354.5 274.4,401.9 375,390 						"/>
					</g>
					<g>
						<path class="st6" d="M37.6,718.1l-0.2,80.1v16.3c0.6,24.5,20.5,44.2,45.2,44.3l297.3,1.4c25.1,0.1,45.5-20.1,45.7-45.3
							l0.3-96.8H37.6z"/>
					</g>
					<g>
						<polygon class="st6" points="144.2,137.1 142.7,50 97.4,50 84.3,128.3 						"/>
					</g>
					<g>
						<polygon class="st6" points="363.5,245.6 368.1,226.8 336.3,166.2 295.4,186.3 309,243.6 						"/>
					</g>
					<g>
						<path class="st6" d="M86.3,511c0.5,2.8,0,76.4,0,76.4l59.5-3.8L139,483L86.3,511z"/>
					</g>
				</g>
				<g>
					<polygon class="st6" points="284.9,570.9 281.7,525.2 383.8,512.1 383.8,520 371.5,561.9 					"/>
				</g>
				<g>
					<g>
						<g>
							<g>
								<path class="st5" d="M380,687.2l-1.3-29.8l-89.8,4.4c-2.4,0.1-4.7-0.4-6.8-1.4L154.9,596c-2.9-1.5-4.9-4.5-5.1-7.8
									l-17.3-336.1c-0.1-1.6,0.5-3.2,1.7-4.3s2.7-1.7,4.3-1.6l54.6,4v-59.6h6.4v60.5c0,1.6-0.7,3.1-1.8,4.1
									c-1.1,1.1-2.7,1.6-4.2,1.5l-54.5-4l17.3,335.2c0.1,1,0.6,1.9,1.5,2.4l127.3,64.3c1.1,0.6,2.4,0.8,3.6,0.8l90.5-4.4
									c1.5-0.1,3,0.5,4.1,1.5s1.8,2.4,1.8,3.9l1.3,30.5L380,687.2z"/>
							</g>
						</g>
					</g>
				</g>
			</g>
		</g>
		<g>
			<g>
				<path class="st7" d="M353.7,154.2c0,6.9-5.6,12.4-12.4,12.4c-6.9,0-12.4-5.6-12.4-12.4c0-6.9,5.6-12.4,12.4-12.4
					S353.7,147.3,353.7,154.2z"/>
			</g>
			<g class="st8">
				
					<ellipse transform="matrix(0.8514 -0.5246 0.5246 0.8514 -30.1836 201.9328)" class="st5" cx="341.2" cy="154.2" rx="12.4" ry="12.4"/>
			</g>
			<g>
				<path class="st7" d="M349.5,153.8c0,4.6-3.7,8.3-8.3,8.3c-4.6,0-8.3-3.7-8.3-8.3s3.7-8.3,8.3-8.3S349.5,149.2,349.5,153.8z"/>
			</g>
		</g>
		<g>
			<path class="st7" d="M382.7,691.8l-1.5-34.9c0-0.5-0.2-1-0.6-1.3c-0.4-0.3-0.9-0.5-1.4-0.5l-93.7,4.9l-11.3-142l-14.1-163.5v-0.1
				l16-87.3c0.6-3.3,3.5-5.7,6.8-5.7l84.7-0.3c3.2,0,5.8-2.5,6-5.7l1.5-23.5c0.2-3-0.4-6-1.7-8.7l-33.1-69l1.9-0.9l33.1,69
				c1.5,3,2.1,6.4,1.9,9.8l-1.5,23.5c-0.3,4.3-3.9,7.7-8.2,7.7l-84.6,0.3c-2.3,0-4.3,1.7-4.7,3.9l-16,87.2l14.1,163.2l11.1,139.9
				l91.7-4.8c1.1-0.1,2.1,0.3,2.9,1c0.8,0.7,1.3,1.7,1.3,2.8l1.5,34.9L382.7,691.8z"/>
		</g>
		<g>
			<path class="st7" d="M388.6,688.9c0,2.9-2.4,5.3-5.3,5.3c-2.9,0-5.3-2.4-5.3-5.3s2.4-5.3,5.3-5.3
				C386.2,683.6,388.6,686,388.6,688.9z"/>
		</g>
		<g>
			<g>
				<path class="st7" d="M286,590.6c0.2,2.8-1.9,5.1-4.6,5.3c-2.8,0.2-5.1-1.9-5.3-4.6c-0.2-2.8,1.9-5.1,4.6-5.3
					C283.5,585.8,285.9,587.9,286,590.6z"/>
			</g>
			<g>
				<path class="st7" d="M281.5,594.9c-5,0.3-8.7,4.6-8.4,9.6l18-1.2C290.8,598.3,286.5,594.5,281.5,594.9z"/>
			</g>
		</g>
		<g>
			<g>
				<g>
					<path class="st9" d="M352.5,537.7h-44.2c-3.7,0-6.8,3-6.8,6.8v27.8c0,3.7,3,6.8,6.8,6.8h0.9v6.6l7.7-6.6h35.7
						c3.7,0,6.8-3,6.8-6.8v-27.8C359.3,540.7,356.2,537.7,352.5,537.7z"/>
				</g>
			</g>
			<g class="st10">
				<g>
					<path class="st5" d="M352.5,537.7h-44.2c-3.7,0-6.8,3-6.8,6.8v27.8c0,3.7,3,6.8,6.8,6.8h0.9v6.6l7.7-6.6h35.7
						c3.7,0,6.8-3,6.8-6.8v-27.8C359.3,540.7,356.2,537.7,352.5,537.7z"/>
				</g>
			</g>
		</g>
		<g>
			<g>
				<g>
					<ellipse class="st3" cx="90.3" cy="756" rx="0.6" ry="3.2"/>
				</g>
			</g>
			<g>
				<g>
					<ellipse class="st3" cx="90.3" cy="768.8" rx="0.6" ry="3.2"/>
				</g>
			</g>
			<g>
				<g>
					<ellipse class="st3" cx="90.3" cy="781.6" rx="0.6" ry="3.2"/>
				</g>
			</g>
			<g>
				<g>
					<ellipse class="st3" cx="90.3" cy="794.4" rx="0.6" ry="3.2"/>
				</g>
			</g>
			<g>
				<g>
					<ellipse class="st3" cx="90.3" cy="806.3" rx="0.6" ry="2.3"/>
				</g>
			</g>
		</g>
		<g>
			<g>
				<g>
					<path class="st11" d="M99.3,819.5c0-5.6-5-10-10.8-8.9c-3.6,0.7-6.5,3.6-7.2,7.3c-0.4,2.3,0.1,4.4,1.1,6.2l0,0l0,0
						c0.3,0.6,0.8,1,1.2,1.6l5.3,7c0.7,0.9,2,0.9,2.6,0l5.2-6.8c0,0,1-1.2,1.3-1.7l0,0l0,0C98.8,822.7,99.3,821.2,99.3,819.5z
						 M90.3,823.5c-2.2,0-4-1.8-4-4s1.8-4,4-4s4,1.8,4,4C94.2,821.7,92.5,823.5,90.3,823.5z"/>
				</g>
			</g>
			<g>
				<g>
					<path class="st3" d="M320.1,823.5c0,0.3-45.9,0.6-102.6,0.6s-102.6-0.2-102.6-0.6c0-0.3,45.9-0.6,102.6-0.6
						S320.1,823.2,320.1,823.5z"/>
				</g>
			</g>
			<g>
				<g>
					<path class="st7" d="M239.1,814.5c0,0.3-27.8,0.6-62.1,0.6s-62.2-0.2-62.2-0.6c0-0.3,27.8-0.6,62.2-0.6
						C211.3,813.9,239.1,814.2,239.1,814.5z"/>
				</g>
			</g>
			<g>
				<g>
					<path class="st3" d="M148.5,833.6c0,0.3-7.4,0.6-16.4,0.6c-9.1,0-16.4-0.2-16.4-0.6c0-0.3,7.4-0.6,16.4-0.6
						C141.1,833.1,148.5,833.3,148.5,833.6z"/>
				</g>
			</g>
		</g>
		<g>
			<g>
				<g>
					<path class="st7" d="M99.3,748.9c0-5.6-5-10-10.8-8.9c-3.6,0.7-6.5,3.6-7.2,7.3c-0.4,2.3,0.1,4.4,1.1,6.2l0,0l0,0
						c0.3,0.6,0.8,1,1.2,1.6l5.3,7c0.7,0.9,2,0.9,2.6,0l5.2-6.8c0,0,1-1.2,1.3-1.7l0,0l0,0C98.8,752.1,99.3,750.6,99.3,748.9z
						 M90.3,752.8c-2.2,0-4-1.8-4-4s1.8-4,4-4s4,1.8,4,4S92.5,752.8,90.3,752.8z"/>
				</g>
			</g>
			<g>
				<g>
					<path class="st3" d="M363.4,752.8c0,0.3-55.6,0.6-124.2,0.6S115,753.2,115,752.8c0-0.3,55.6-0.6,124.2-0.6
						C307.8,752.3,363.4,752.5,363.4,752.8z"/>
				</g>
			</g>
			<g>
				<g>
					<path class="st7" d="M290.7,743.8c0,0.3-39.4,0.6-87.9,0.6c-48.6,0-88-0.2-88-0.6c0-0.3,39.4-0.6,88-0.6
						C251.3,743.3,290.7,743.5,290.7,743.8z"/>
				</g>
			</g>
			<g>
				<g>
					<path class="st3" d="M212,763c0,0.3-21.6,0.6-48.2,0.6s-48.2-0.2-48.2-0.6c0-0.3,21.6-0.6,48.2-0.6
						C190.4,762.5,212,762.7,212,763z"/>
				</g>
			</g>
		</g>
	</g>
	<g>
		<g>
			<g>
				<g>
					<g>
						<path class="st5" d="M719.1,241.2l-9.7-21.6c-9.8-0.8-19.6-4.2-28.1-10.5c-24.6-18-29.9-52.5-11.8-77.1
							c18-24.6,52.5-29.9,77.1-11.8c24.6,18,29.9,52.5,11.8,77.1c-7.5,10.3-17.9,17.1-29.3,20.4l0,0L719.1,241.2z"/>
					</g>
					<g>
						<g>
							<path class="st3" d="M719.1,241.2c0.7-1.8,3.7-8.9,9.8-23.7l0.3,0.4l0,0l-2.1,0.1l2.1-0.6c7.5-2.2,16.6-6.6,24.3-14.7
								c1.9-2,3.8-4.2,5.4-6.7c0.8-1.3,1.7-2.5,2.5-3.8c0.7-1.4,1.4-2.7,2.1-4.1c2.6-5.7,4.5-12.2,5-19.1
								c1.1-13.7-3.3-29.3-14.1-41.1c-5.4-5.8-12.2-10.6-19.9-13.7c-7.7-3.1-16.3-4.6-24.9-3.8c-8.8,0.8-17.3,3.5-24.4,8
								c-7.2,4.5-13.1,10.6-17.4,17.4c-4.3,6.8-7,14.4-7.9,21.9c-1,7.5-0.3,15,1.6,21.7c1.9,6.8,4.9,12.8,8.7,18
								c3.8,5.1,8.3,9.1,12.8,12.5c9.2,6.5,18.9,9,26.6,9.6h0.2l0.1,0.1C715.5,233,718.3,239.5,719.1,241.2
								c-0.8-1.7-3.7-8.1-9.9-21.5l0.2,0.2c-7.8-0.6-17.6-3-27-9.5c-4.6-3.3-9.2-7.4-13.1-12.6c-3.8-5.2-7-11.3-8.9-18.2
								s-2.6-14.4-1.6-22.1c0.9-7.7,3.7-15.4,8-22.4c4.4-7,10.4-13.2,17.8-17.8c7.3-4.7,16-7.4,24.9-8.2c8.8-0.8,17.5,0.7,25.4,3.9
								s14.8,8.1,20.2,14c5.5,6,9.4,13,11.7,20.2s3.1,14.7,2.6,21.7s-2.4,13.6-5.1,19.4c-0.7,1.4-1.5,2.8-2.2,4.2
								c-0.8,1.3-1.7,2.6-2.5,3.8c-1.7,2.5-3.6,4.7-5.5,6.8c-7.9,8.2-17.1,12.6-24.7,14.7l-0.1-0.5l0,0h0.4l-0.2,0.4
								C722.9,232.3,719.8,239.4,719.1,241.2z"/>
						</g>
					</g>
				</g>
			</g>
		</g>
		<g>
			<g>
				<path class="st7" d="M737.2,162.5c0-12.8-11.5-22.8-24.8-20.4c-8.3,1.6-14.9,8.4-16.4,16.7c-0.9,5.2,0.2,10.1,2.5,14.2l0,0
					l0.1,0.1c0.8,1.3,1.8,2.3,2.8,3.7l12,16c1.5,2,4.5,2,6,0l11.8-15.7c0,0,2.2-2.6,3-4V173l0,0
					C736.2,169.9,737.2,166.3,737.2,162.5z M716.5,171.5c-5,0-9.1-4.1-9.1-9.1s4.1-9.1,9.1-9.1s9.1,4.1,9.1,9.1
					C725.6,167.5,721.5,171.5,716.5,171.5z"/>
			</g>
		</g>
	</g>
	<g>
		<g>
			<g>
				<g>
					<g>
						<g>
							<g>
								<g>
									<g>
										<path class="st3" d="M563.6,140.1c1.9-7.1,7.3-10.6,14.2-13c7-2.4,15.1-1.1,20.9,3.4c3.9,3,7,7.3,11.6,8.9
											c7.7,2.7,16.6-3.1,24,0.4c4.3,2,6.9,7.3,5.7,12s-5.9,8.2-10.7,7.9c5,1.8,6.5,9,3.6,13.4s-8.9,6.1-14.1,5.1
											c-5.2-1-9.8-4.1-13.7-7.7c-4-3.6-7.5-7.6-11.7-10.8s-9.4-5.7-14.7-5.4c-7.2,0.4-13.4,5.8-16.6,12.3
											c-3.2,6.4-3.9,13.8-4.3,21c-0.4,7.2-0.5,14.5-2.7,21.4c-0.3,0.8-0.6,1.7-1.4,2c-1.2,0.4-2.2-0.9-2.7-2
											c-6.5-12.1-10.7-25.6-12.1-39.3c-0.8-8-0.6-15.5,3.8-22.2C547.1,140.8,558.2,135.9,563.6,140.1"/>
									</g>
								</g>
							</g>
						</g>
						<g>
							<g>
								<g>
									<g>
										<g>
											<g>
												<g>
													<g>
														<g>
															<g>
																<g>
																	<g>
																		<g>
																			<g>
																				<g>
																					<g>
																						<g>
																							<path class="st12" d="M549.7,173.5l-3.7,80.6c-0.6,13.7,1.3,34,23,34l0,0c18.9-1.4,24.4-19,25-31.8
																								c0.3-6.1,0.5-11.1,0.6-11.8c0,0,20.6-1,23-21.2c1.2-9.8,1.9-30.1,2.4-48.6c0.5-19.8-14.3-36.6-34-38.7
																								l-2-0.2C562.9,134.8,550.1,152.2,549.7,173.5z"/>
																						</g>
																					</g>
																				</g>
																			</g>
																		</g>
																	</g>
																</g>
															</g>
														</g>
													</g>
												</g>
												<g>
													<g>
														<g>
															<g>
																<g>
																	<g>
																		<g>
																			<g>
																				<g>
																					<g>
																						<g>
																							<path class="st13" d="M594.7,244.3c0,0-12.9-0.3-25.6-10.3c0,0,4.7,15.3,25.1,15.6L594.7,244.3z"/>
																						</g>
																					</g>
																				</g>
																			</g>
																		</g>
																	</g>
																</g>
															</g>
														</g>
													</g>
												</g>
											</g>
										</g>
									</g>
									<g>
										<g>
											<g>
												<g>
													<g>
														<g>
															<g>
																<g>
																	<g>
																		<g>
																			<g>
																				<g>
																					<g>
																						<g>
																							<g>
																								<g>
																									<g>
																										<path class="st3" d="M614.8,189.8c-0.1,1.5-1.5,2.7-3.1,2.6c-1.6-0.1-2.8-1.4-2.7-2.9s1.5-2.7,3.1-2.6
																											C613.7,187,614.9,188.3,614.8,189.8z"/>
																									</g>
																								</g>
																							</g>
																						</g>
																					</g>
																				</g>
																			</g>
																		</g>
																	</g>
																</g>
															</g>
															<g>
																<g>
																	<g>
																		<g>
																			<g>
																				<g>
																					<g>
																						<g>
																							<g>
																								<g>
																									<g>
																										<g>
																											<path class="st3" d="M614.6,184.2c-0.4,0.3-2.4-1.5-5.5-1.8c-3.1-0.4-5.6,1-5.9,0.6
																												c-0.1-0.2,0.3-0.8,1.4-1.4c1.1-0.6,2.8-1.1,4.7-0.9c1.9,0.2,3.5,1.1,4.4,1.9
																												C614.5,183.4,614.8,184.1,614.6,184.2z"/>
																										</g>
																									</g>
																								</g>
																							</g>
																						</g>
																					</g>
																				</g>
																			</g>
																		</g>
																	</g>
																</g>
															</g>
														</g>
														<g>
															<g>
																<g>
																	<g>
																		<g>
																			<g>
																				<g>
																					<g>
																						<g>
																							<g>
																								<g>
																									<g>
																										<path class="st3" d="M584.1,187.6c-0.1,1.5-1.5,2.7-3.1,2.6c-1.6-0.1-2.8-1.4-2.7-2.9s1.5-2.7,3.1-2.6
																											C583,184.8,584.2,186.1,584.1,187.6z"/>
																									</g>
																								</g>
																							</g>
																						</g>
																					</g>
																				</g>
																			</g>
																		</g>
																	</g>
																</g>
															</g>
															<g>
																<g>
																	<g>
																		<g>
																			<g>
																				<g>
																					<g>
																						<g>
																							<g>
																								<g>
																									<g>
																										<g>
																											<path class="st3" d="M583.9,181.5c-0.4,0.3-2.4-1.5-5.5-1.8c-3.1-0.4-5.6,1-5.9,0.6
																												c-0.1-0.2,0.3-0.8,1.4-1.4c1.1-0.6,2.8-1.1,4.7-0.9c1.9,0.2,3.5,1.1,4.4,1.9
																												C583.8,180.7,584.1,181.4,583.9,181.5z"/>
																										</g>
																									</g>
																								</g>
																							</g>
																						</g>
																					</g>
																				</g>
																			</g>
																		</g>
																	</g>
																</g>
															</g>
														</g>
														<g>
															<g>
																<g>
																	<g>
																		<g>
																			<g>
																				<g>
																					<g>
																						<g>
																							<g>
																								<g>
																									<g>
																										<path class="st3" d="M592.7,205.9c0-0.2,2-0.3,5.2-0.4c0.8,0,1.6-0.1,1.8-0.6c0.2-0.6,0-1.4-0.3-2.4
																											c-0.5-2-1.1-4.1-1.7-6.3c-2.4-9-4-16.3-3.6-16.4c0.4-0.1,2.6,7.1,4.9,16.1c0.6,2.2,1.1,4.3,1.6,6.3
																											c0.2,0.9,0.6,2,0.1,3.2c-0.3,0.6-0.9,0.9-1.4,1s-1,0.1-1.4,0C594.7,206.2,592.7,206,592.7,205.9z"/>
																									</g>
																								</g>
																							</g>
																						</g>
																					</g>
																				</g>
																			</g>
																		</g>
																	</g>
																</g>
															</g>
														</g>
													</g>
												</g>
											</g>
											<g>
												<g>
													<g>
														<g>
															<g>
																<g>
																	<g>
																		<g>
																			<g>
																				<g>
																					<g>
																						<path class="st3" d="M586,169.4c-0.4,0.8-3.5,0.1-7.2,0.1s-6.8,0.7-7.2-0.1c-0.2-0.4,0.4-1.1,1.7-1.8
																							s3.2-1.3,5.5-1.3c2.2,0,4.2,0.6,5.5,1.2C585.6,168.3,586.2,169,586,169.4z"/>
																					</g>
																				</g>
																			</g>
																		</g>
																	</g>
																</g>
															</g>
														</g>
													</g>
												</g>
											</g>
											<g>
												<g>
													<g>
														<g>
															<g>
																<g>
																	<g>
																		<g>
																			<g>
																				<g>
																					<g>
																						<path class="st3" d="M614.4,175.1c-0.6,0.6-2.7-0.3-5.3-0.6c-2.6-0.4-4.8,0-5.2-0.8c-0.2-0.4,0.2-1.1,1.3-1.6
																							c1-0.6,2.6-0.9,4.4-0.7c1.8,0.2,3.2,1,4.1,1.9C614.5,174,614.7,174.8,614.4,175.1z"/>
																					</g>
																				</g>
																			</g>
																		</g>
																	</g>
																</g>
															</g>
														</g>
													</g>
												</g>
											</g>
										</g>
									</g>
								</g>
							</g>
						</g>
						<g>
							<g>
								<g>
									<g>
										<g>
											<g>
												<g>
													<g>
														<g>
															<g>
																<g>
																	<g>
																		<path class="st12" d="M549.8,188.7c-0.3-0.2-13.5-5.6-14.5,8.3c-1,13.9,13.1,12.1,13.2,11.7
																			C548.5,208.3,549.8,188.7,549.8,188.7z"/>
																	</g>
																</g>
															</g>
														</g>
													</g>
												</g>
											</g>
										</g>
									</g>
								</g>
							</g>
							<g>
								<g>
									<g>
										<g>
											<g>
												<g>
													<g>
														<g>
															<g>
																<g>
																	<g>
																		<g>
																			<path class="st13" d="M544.6,203.1c-0.1,0-0.3,0.2-0.7,0.3c-0.4,0.2-1.1,0.2-1.8-0.1c-1.4-0.6-2.5-3.1-2.4-5.6
																				c0.1-1.3,0.4-2.5,0.9-3.4c0.5-1,1.2-1.6,2-1.7c0.7-0.1,1.2,0.4,1.4,0.8c0.2,0.4,0,0.7,0.1,0.7
																				c0,0,0.3-0.2,0.2-0.8c0-0.3-0.2-0.6-0.5-0.9c-0.3-0.3-0.8-0.5-1.3-0.5c-1.1,0-2.1,0.9-2.7,2
																				c-0.6,1.1-1.1,2.4-1.1,3.8c-0.1,2.8,1.1,5.5,3.1,6.3c1,0.3,1.8,0.1,2.2-0.2C544.5,203.4,544.6,203.1,544.6,203.1
																				z"/>
																		</g>
																	</g>
																</g>
															</g>
														</g>
													</g>
												</g>
											</g>
										</g>
									</g>
								</g>
							</g>
						</g>
						<g>
							<g>
								<g>
									<g>
										<path class="st3" d="M624.8,171c-9.2,1.4-19-1.9-25.4-8.6c-4.5-4.7-7.7-11.1-13.6-13.7c-4-1.7-8.7-1.3-12.8,0.4
											c-4,1.7-7.5,4.6-10.5,7.8c2.8,10.7-1,21.9-4.8,32.4c-0.4,1.2-0.9,2.4-2,3c-1.8,1.1-4.1-0.2-5.4-1.8
											c-2-2.6-2.6-6.1-2.8-9.4c-0.5-7.6,0.1-15.3,2.5-22.5s6.7-13.8,12.8-18.5c7.5-5.8,17.4-8.2,26.8-7s18.3,5.7,25.2,12.2
											c3.2,3,6.1,6.5,7.5,10.7"/>
									</g>
								</g>
							</g>
						</g>
					</g>
					<g>
						<g>
							<g>
								<path class="st13" d="M593.7,214.7c-0.5,1.2-1,2.5-1.8,3.5s-2,1.9-3.3,1.9c-1.4,0.1-2.8-0.8-3.5-1.9c-0.8-1.2-1.1-2.6-1-4
									c0.1-1.3,0.6-2.8,1.9-2.9c0.5-0.1,1,0.1,1.5,0.3c2.2,0.9,4.4,1.8,6.6,2.7"/>
							</g>
						</g>
						<g>
							<g>
								<g>
									<path class="st3" d="M591.1,220.1c0-0.2-1.5,0.4-3.5-0.4c-1-0.4-2.1-1.2-2.7-2.4c-0.6-1.2-0.7-2.9-0.1-4.3
										c0.1-0.4,0.4-0.7,0.6-1c0.3-0.3,0.2-0.3,0.5-0.2s0.7,0.3,1.1,0.4c0.4,0.2,0.7,0.3,1.1,0.4c1.4,0.6,2.7,1.1,3.8,1.5
										c2.2,0.8,3.6,1.2,3.6,1.1c0.1-0.2-1.2-0.9-3.3-1.9c-1-0.5-2.3-1.1-3.7-1.7c-0.4-0.2-0.7-0.3-1.1-0.5
										c-0.4-0.2-0.7-0.3-1.2-0.5c-0.3-0.1-0.6-0.1-1,0s-0.6,0.4-0.7,0.6c-0.3,0.4-0.6,0.8-0.7,1.3c-0.8,1.8-0.6,3.8,0.2,5.3
										s2.2,2.4,3.4,2.7c1.2,0.4,2.2,0.3,2.9,0.1C590.8,220.4,591.1,220.2,591.1,220.1z"/>
								</g>
							</g>
						</g>
					</g>
				</g>
				<g>
					<g>
						<g>
							<g>
								<g>
									<g>
										<path class="st7" d="M716.1,793.8l15.5,45c0,0,51-0.6,54.7,7.4L700,879.4l-27.1-69.2L716.1,793.8z"/>
									</g>
								</g>
							</g>
							<g>
								<g>
									<g>
										<g>
											<path class="st2" d="M703.5,845.3c-1.5,1.1-1.9,3.4-0.9,5c1,1.5,3.4,2,4.9,0.9s2.1-3.8,0.9-5.3c-1.2-1.4-4-1.8-5.2-0.4"
												/>
										</g>
									</g>
								</g>
							</g>
							<g class="st8">
								<g>
									<g>
										<path class="st5" d="M700.1,879.4l-2.5-7.1l83.6-29.2c0,0,4.5,0.2,5.1,3.1L700.1,879.4z"/>
									</g>
								</g>
							</g>
							<g>
								<g>
									<g>
										<g>
											<path class="st3" d="M732.9,837.8c0.1,0.4-1.9,1.4-3.4,3.6c-1.6,2.1-2,4.3-2.4,4.3c-0.4,0.1-0.8-2.7,1.2-5.3
												C730.1,837.9,732.8,837.4,732.9,837.8z"/>
										</g>
									</g>
								</g>
							</g>
							<g>
								<g>
									<g>
										<g>
											<path class="st3" d="M743.4,838.1c0.3,0.4-1.3,1.8-2,4.1c-0.8,2.3-0.4,4.4-0.9,4.5c-0.4,0.2-1.6-2.1-0.6-5
												C740.8,838.8,743.2,837.7,743.4,838.1z"/>
										</g>
									</g>
								</g>
							</g>
							<g>
								<g>
									<g>
										<g>
											<path class="st3" d="M752.7,846.9c-0.3,0.2-1.7-1.6-1.6-4.4c0.2-2.7,1.8-4.4,2.1-4.1c0.4,0.3-0.4,2-0.6,4.2
												C752.5,844.9,753.1,846.7,752.7,846.9z"/>
										</g>
									</g>
								</g>
							</g>
							<g>
								<g>
									<g>
										<g>
											<path class="st3" d="M728.2,828c0,0.5-2.2,0.6-4.5,1.7c-2.3,1-3.9,2.5-4.2,2.3c-0.4-0.2,0.8-2.5,3.6-3.7
												C725.8,827,728.3,827.5,728.2,828z"/>
										</g>
									</g>
								</g>
							</g>
						</g>
					</g>
				</g>
				<g>
					<g>
						<g>
							<g>
								<path class="st7" d="M399.6,787.8l-1,1.3l-18.7,24.4l-23.1,15.9l31,59.6h34.1c0,0-2.5-8.2-18.9-12.4l-1.1-32.7l29.4-32.3"/>
							</g>
						</g>
						<g class="st8">
							<g>
								<polygon class="st5" points="356.9,829.3 387.8,889 421.9,889 418.1,883.9 390.4,882.3 361.8,826 								"/>
							</g>
						</g>
					</g>
					<g>
						<g>
							<g>
								<path class="st3" d="M402.9,861.6c-0.3,0.3-2.2-0.8-4.9-0.7c-2.6,0-4.6,1.2-4.8,0.8c-0.3-0.3,1.6-2.3,4.8-2.3
									C401.2,859.3,403.2,861.3,402.9,861.6z"/>
							</g>
						</g>
					</g>
					<g>
						<g>
							<g>
								<path class="st3" d="M402.3,853.4c-0.3,0.2-1.9-1.8-4.6-2.3c-2.7-0.6-4.9,0.7-5.1,0.4c-0.1-0.2,0.3-0.7,1.2-1.2
									s2.5-0.9,4.2-0.6s3,1.3,3.6,2.1C402.3,852.7,402.5,853.3,402.3,853.4z"/>
							</g>
						</g>
					</g>
					<g>
						<g>
							<g>
								<path class="st3" d="M402.5,843c-0.4,0.2-1.5-1.8-3.9-2.6c-2.4-0.9-4.5-0.1-4.7-0.4c-0.1-0.2,0.3-0.6,1.3-1
									c0.9-0.4,2.4-0.5,3.9,0s2.5,1.6,3,2.4C402.7,842.3,402.7,842.9,402.5,843z"/>
							</g>
						</g>
					</g>
					<g>
						<g>
							<g>
								<path class="st3" d="M411.7,834.9c-0.4,0.1-1.4-1.8-3.5-3.2c-2.1-1.4-4.2-1.6-4.3-2s2.5-1,5.1,0.8
									C411.6,832.2,412.1,834.9,411.7,834.9z"/>
							</g>
						</g>
					</g>
					<g class="st8">
						<g>
							<path class="st5" d="M384.1,828.3c0,2.2-1.8,4-4,4s-4-1.8-4-4s1.8-4,4-4S384.1,826.1,384.1,828.3z"/>
						</g>
					</g>
				</g>
				<g>
					<g>
						<polygon class="st3" points="513.2,542.4 618.6,696.9 675.5,831.9 723.8,806.1 675,670.9 603.3,528.8 						"/>
					</g>
					<g>
						<polygon class="st3" points="469.6,528.8 452,653.1 380.1,810 422.9,834.9 514.4,679.4 565.2,528.8 						"/>
					</g>
					<g>
						<g>
							<path class="st11" d="M422.9,834.9c0,0,0.1-0.3,0.4-0.8c0.3-0.5,0.7-1.2,1.2-2.2c1.1-1.9,2.7-4.7,4.7-8.2
								c4.1-7.2,10.1-17.5,17.4-30.1c14.8-25.4,35.2-60.5,57.7-99.2c3.7-6.3,7.3-12.5,10.8-18.4v0.1c12.5-37.8,23.7-71.2,31.6-95.3
								c4-11.9,7.2-21.5,9.5-28.2c1.1-3.3,2-5.8,2.6-7.6c0.3-0.8,0.5-1.5,0.7-2c0.2-0.4,0.3-0.7,0.3-0.7s0,0.2-0.2,0.7
								s-0.4,1.2-0.6,2c-0.6,1.8-1.4,4.4-2.4,7.7c-2.2,6.7-5.3,16.4-9.2,28.3c-7.9,24.1-18.9,57.6-31.3,95.4v0.1v0.1
								c-3.4,5.9-7.1,12.1-10.8,18.4c-22.6,38.7-43.1,73.7-58,99.1c-7.4,12.6-13.5,22.8-17.7,30c-2.1,3.5-3.7,6.2-4.9,8.1
								c-0.5,0.9-1,1.6-1.3,2.1C423.1,834.7,423,835,422.9,834.9z"/>
						</g>
					</g>
				</g>
				<g>
					<g>
						<path class="st7" d="M610,461.4l-3.6-53.4l-13.5-125.8l4.8-26.2l-53.3-21.3l-6.4,12.8c-32,4.8-45.4,67.9-45.4,67.9l-1.1,128.4
							l-35.5,87l9.2,8.1c14.5,8.7,150.1,3.2,150.1,3.2L610,461.4z"/>
					</g>
					<g class="st14">
						<g>
							<path d="M469.6,497.4c9.6,12.2,19.8,21.8,32.2,31.1c6.6,5,14.5,9.7,22.6,8.4c7.9-1.3,13.8-7.8,18.9-13.9
								c9.7-11.5,19.4-22.9,29.1-34.4c1.6-1.9,3.4-4,3.8-6.5c0.5-3.2-1.4-6.5-4.1-8.4c-2.7-1.9-6-2.7-9.3-3
								c-20.5-2.4-40.4,7.7-61,7.9c-7,0.1-18.5-1.3-25.1,1L469.6,497.4"/>
						</g>
					</g>
					<g>
						<path class="st11" d="M579.4,413.7c10.9,10.7,12.5,27.6,3.9,40.2l-18.2,26.7L538.7,515c-7.6,9.9-22.2,10.9-31.1,2.2L387,424.3
							c-7.7-5.9-9.3-16.8-3.7-24.7l49.1-69c5.8-8.1,17.1-10,25.2-4.2L579.4,413.7z"/>
					</g>
					<g>
						<g>
							<path class="st3" d="M517,522.5c0,0,0.1-0.2,0.3-0.6c0.3-0.5,0.6-1.1,1.1-1.8c1-1.6,2.4-3.9,4.3-6.8
								c3.8-5.9,9.5-14.3,16.5-24.7s15.4-22.7,24.5-36.5c2.2-3.5,4.6-7,6.4-10.9c0.9-1.9,1.5-4,1.4-6.1s-1-4.1-2.3-5.8
								c-2.7-3.5-6.7-5.8-10.4-8.6c-3.8-2.7-7.6-5.4-11.5-8.2c-31.1-22.2-59.2-42.2-79.6-56.8c-10.1-7.3-18.3-13.2-24.1-17.3
								c-2.8-2-5-3.6-6.5-4.8c-0.7-0.5-1.3-0.9-1.7-1.3c-0.4-0.3-0.6-0.4-0.5-0.5c0,0,0.2,0.1,0.6,0.4c0.4,0.3,1,0.7,1.7,1.2
								c1.6,1.1,3.8,2.6,6.6,4.6c5.8,4.1,14.1,9.9,24.3,17c20.5,14.5,48.7,34.5,79.8,56.5c3.9,2.8,7.7,5.5,11.5,8.2
								c3.7,2.7,7.8,5.1,10.7,8.8c1.4,1.8,2.4,4.1,2.5,6.4c0.1,2.3-0.6,4.6-1.5,6.6c-1.9,4-4.3,7.5-6.5,11
								c-9.2,13.8-17.7,26-24.7,36.4C525.6,509.6,517,522.5,517,522.5z"/>
						</g>
					</g>
					<g>
						<path class="st3" d="M562.7,251.8c0,0-34.2-18.1-85.9,63.9l9.2,10.7c0,0,43.2-75.9,71.7-66.7s-13.4,128.9-13.4,128.9
							S607.1,269.2,562.7,251.8z"/>
					</g>
					<g>
						<path class="st7" d="M448.3,344.1c-14.5,14.8-17.3,37.9-6,55.3c0.4,0.6,0.8,1.2,1.2,1.7l46.5,72.3l39-24l0,0l-37.7-68.5
							c0,0,17.5-18.1,36.6-38.5c25.7-27.4,53.1-61.1,33.5-80.5c0,0-13.4-10.6-33.9,5.3C512.7,278.7,470.5,321.3,448.3,344.1z"/>
					</g>
				</g>
			</g>
			<g>
				<g>
					<g>
						<g>
							<g>
								<path class="st12" d="M693.7,292.7l20.3-5c0,0,5.5,4.9,2.7,10s-7.6,17.9-7.6,17.9l-15.7,5.1l-4.4,12.7l-27-11.5l7.2-23.9
									l15.1-18.8l11.4-1.7l7.7,6.5c0,0-6.4,4.7-10.7-0.4l-5.2,2l0.5,3.2C688.2,291.5,691,293.3,693.7,292.7z"/>
							</g>
						</g>
						<g>
							<g>
								<path class="st12" d="M713.9,288.4l13.3-6.5c0,0,3.1-1,5,1l0.7,1.4L717,294.7L713.9,288.4z"/>
							</g>
						</g>
						<g>
							<g>
								<g>
									<path class="st13" d="M685.9,309.1c-0.1-0.1,0.5-1.3,1.4-3.4c0.9-2,2.1-4.9,2-8.2c0-1.6-0.5-3.1-1.2-4.4
										c-0.3-0.6-0.7-1.3-0.9-2s-0.2-1.4-0.2-1.9c0-2.3,0.3-3.7,0.4-3.6c0.2,0,0.2,1.4,0.3,3.6c0,1.2,0.5,2.1,1.3,3.5
										c0.8,1.3,1.3,3,1.4,4.8c0.1,3.6-1.4,6.6-2.4,8.6C686.9,308.1,686.1,309.2,685.9,309.1z"/>
								</g>
							</g>
						</g>
						<g>
							<g>
								<g>
									<path class="st3" d="M746,260.7c0.2,0.4,2.9,4.5,2.9,4.5l-60.6,44.6l-3.8-4.8L746,260.7z"/>
								</g>
							</g>
							<g>
								<g>
									<g>
										<path class="st12" d="M708.7,314.7c1.2-1.3,0.5-3.7-1-4.7s-3.4-1.1-5.2-1.2c-3-0.1-6-0.1-8.9,0.5c-1,0.2-1.9,0.5-2.7,1.1
											c-0.7,0.6-1.2,1.7-0.8,2.6c0.4,1.1,1.8,1.5,2.9,1.8c3.1,0.6,6.3,0.9,9.5,0.8"/>
									</g>
								</g>
								<g>
									<g>
										<g>
											<path class="st13" d="M702.6,315.5c0,0.1-2.2,0.5-5.7,0.2c-0.9-0.1-1.8-0.2-2.9-0.3c-1-0.2-2.2-0.3-3.3-1
												c-0.6-0.4-1.1-1-1.2-1.8c-0.1-0.8,0.2-1.5,0.6-2.1c1-1.2,2.5-1.6,3.8-1.8c2.7-0.5,5.3-0.5,7.6-0.4s4.6,0.2,6.2,1.2
												c1.7,1.1,2,2.8,1.9,3.8c-0.2,1.1-0.8,1.4-0.8,1.4c-0.1-0.1,0.3-0.5,0.4-1.4c0-0.9-0.4-2.3-1.8-3.1
												c-1.4-0.8-3.5-0.9-5.8-0.9s-4.8,0-7.4,0.5c-1.3,0.2-2.5,0.6-3.1,1.4c-0.7,0.8-0.6,1.9,0.3,2.4c0.8,0.6,1.9,0.7,2.9,0.9
												s1.9,0.3,2.8,0.4C700.4,315.4,702.6,315.3,702.6,315.5z"/>
										</g>
									</g>
								</g>
							</g>
							<g>
								<g>
									<g>
										<path class="st12" d="M713.8,302.3c-4.8-1.2-8.3-1.7-13.1-2.9c-1.6-0.4-3.3-0.8-4.8-0.1c-1.5,0.6-2.4,2.7-1.3,3.9
											c0.4,0.4,0.9,0.6,1.5,0.9c4.8,1.9,9.6,3.8,14.4,5.7"/>
									</g>
								</g>
								<g>
									<g>
										<g>
											<path class="st13" d="M710.5,309.7c-0.1,0.1-2.2-0.6-5.6-1.8c-1.8-0.7-3.8-1.4-6-2.2c-1.1-0.4-2.3-0.9-3.6-1.4
												c-0.6-0.3-1.4-0.8-1.7-1.7c-0.2-0.9,0-1.7,0.4-2.4s1.1-1.3,1.8-1.5c0.7-0.3,1.5-0.3,2.2-0.3c1.4,0.1,2.6,0.5,3.8,0.8
												c2.3,0.5,4.3,1,6.2,1.4c3.6,0.8,5.7,1.5,5.7,1.7s-2.3-0.3-5.8-0.9c-1.8-0.3-3.9-0.7-6.3-1.2c-1.2-0.3-2.4-0.6-3.6-0.7
												c-1.2-0.1-2.4,0.3-3,1.3c-0.3,0.5-0.4,1.1-0.3,1.5c0.1,0.5,0.5,0.8,1,1c1.2,0.5,2.4,1,3.5,1.4c2.1,0.9,4.1,1.7,5.9,2.5
												C708.5,308.6,710.5,309.6,710.5,309.7z"/>
										</g>
									</g>
								</g>
							</g>
							<g>
								<g>
									<g>
										<path class="st12" d="M716.9,294.7c-4.9-0.9-8.2-1.5-13.1-2.4c-1.6-0.3-3.3-0.6-4.8,0.2c-1.5,0.7-2.3,2.9-1.1,4
											c0.4,0.4,1,0.6,1.5,0.8c4.9,1.6,9.9,3.2,14.8,4.7"/>
									</g>
								</g>
								<g>
									<g>
										<g>
											<path class="st13" d="M714.3,302c0,0.1-2.2-0.4-5.7-1.4c-1.9-0.6-3.9-1.2-6.1-1.8c-1.2-0.4-2.4-0.7-3.6-1.1
												c-0.6-0.2-1.5-0.7-1.8-1.6c-0.3-0.8-0.1-1.7,0.2-2.4c0.4-0.7,1-1.3,1.7-1.7c0.7-0.3,1.5-0.4,2.2-0.5
												c1.4,0,2.7,0.3,3.8,0.5c2.3,0.5,4.4,0.9,6.3,1.3c3.6,0.7,5.7,1.3,5.7,1.4c0,0.2-2.3-0.1-5.9-0.7c-1.9-0.3-4-0.7-6.3-1
												c-1.2-0.2-2.4-0.5-3.6-0.4c-1.2,0-2.4,0.4-2.9,1.5c-1.4,2.6,2.5,2.8,4.5,3.7c2.2,0.7,4.2,1.4,6,2.1
												C712.2,301.1,714.3,301.9,714.3,302z"/>
										</g>
									</g>
								</g>
							</g>
						</g>
					</g>
				</g>
				<g>
					<g>
						<g>
							<path class="st7" d="M690.4,331.6L651,415.8c-3.7,8-11.3,13.5-20.1,14.6l0,0c-11.4,1.5-22.3-4.8-26.9-15.2l-29.4-67.3
								l16.7-72.6l39.5,84.7l32.3-45.8L690.4,331.6z"/>
						</g>
					</g>
					<g>
						<g>
							<g>
								<path class="st3" d="M619.3,388.3c-0.3-0.1,2-6.7,5.1-14.8s5.8-14.5,6.1-14.4s-2,6.7-5.1,14.8
									C622.3,382,619.5,388.5,619.3,388.3z"/>
							</g>
						</g>
					</g>
				</g>
			</g>
			<g>
				<g>
					<path class="st3" d="M610.5,460.5c0,0.1-0.1-0.6-0.2-1.8c-0.1-1.3-0.3-3-0.5-5.2c-0.4-4.6-1-11.2-1.6-19.2
						c-1.4-16.3-3.3-38.6-5.5-63.2c-2.2-24.7-4.5-47-6.2-63.2c-0.9-8-1.7-14.5-2.2-19.1c-0.3-2.2-0.5-3.9-0.6-5.2
						c-0.1-1.2-0.2-1.8-0.1-1.8c0,0,0.2,0.6,0.4,1.8c0.2,1.3,0.5,3,0.8,5.2c0.7,4.5,1.6,11,2.5,19.1c2,16.1,4.3,38.5,6.6,63.2
						c2.2,24.7,4,47.1,5.2,63.3c0.5,8,1,14.6,1.3,19.2c0.1,2.2,0.2,3.9,0.3,5.2C610.6,459.9,610.6,460.6,610.5,460.5z"/>
				</g>
			</g>
		</g>
		<g>
			<g>
				<g>
					<path class="st12" d="M520.9,454.2l5.1,10.7c0,0,10.2,1.2,14.4,3.2s19.4,15.1,19.4,15.1s-1.8,3.8-5.8,2.7
						c-1.8-0.5-9.6-6.4-9.6-6.4l0,0c-3.6,0.5-5.5,4.8-3.4,7.9c3,4.5,6.5,9.8,6.8,10.6c0.4,0.8,7,3.7,12.1,5.7c3,1.2,2.7,6-0.5,6.4
						c-0.3,0-0.6,0-0.9-0.1c0,0,2.4,5.1-6.4,3.6c0,0-5.8,4-10.4,1.5c0,0-8.3,1.9-12,0.7s-19-22.8-19-22.8l-13.3-24.1L520.9,454.2z"
						/>
				</g>
			</g>
			<g>
				<g>
					<g>
						<path class="st13" d="M534.7,492.8c-0.1,0.1,0.5,1.7,1.7,4.3c1.3,2.5,3.3,6.2,6.9,8.8c3.7,2.6,7.8,3.2,10.5,3.5
							c2.8,0.3,4.6,0.2,4.6,0.1c0-0.2-1.7-0.4-4.4-0.9s-6.6-1.2-10-3.7s-5.4-5.9-6.9-8.3C535.8,494.3,534.9,492.7,534.7,492.8z"/>
					</g>
				</g>
			</g>
			<g>
				<g>
					<g>
						<path class="st13" d="M530.4,497.8c-0.2,0,0.2,1.7,1.4,4c0.6,1.2,1.4,2.5,2.4,3.9s2.2,2.9,4.1,4c1.8,1,3.6,1.5,5.3,2
							c1.5,0.4,2.9,0.8,4.3,1.1c2.5,0.6,4,0.9,4.1,0.8c0-0.2-1.4-0.8-3.8-1.6c-1.2-0.4-2.7-0.9-4.3-1.4s-3.4-1-5-1.9
							s-2.8-2.4-3.8-3.6c-1-1.3-1.9-2.6-2.6-3.7C531.1,499.2,530.5,497.7,530.4,497.8z"/>
					</g>
				</g>
			</g>
			<g>
				<g>
					<g>
						<path class="st13" d="M525.8,503.9c-0.4,0.3,2.3,4.1,5.9,8.5c0.5,0.8,1.3,1,1.9,1.3c0.6,0.3,1.3,0.5,1.9,0.7
							c1.2,0.4,2.3,0.6,3.2,0.7c1.9,0.2,3.1,0,3.1-0.2s-1.1-0.2-2.9-0.7c-0.9-0.2-1.9-0.5-3-0.9c-0.6-0.2-1.1-0.4-1.7-0.7
							c-0.6-0.3-1.2-0.6-1.5-1c-1.8-2.3-3.5-4.2-4.7-5.6C526.7,504.7,525.9,503.9,525.8,503.9z"/>
					</g>
				</g>
			</g>
		</g>
		<g>
			<g>
				<path class="st3" d="M588.1,252.7c0.3,0.1-0.6,4.7-1.6,10.5s-1.7,10.5-2,10.4c-0.3,0-0.1-4.8,1-10.6
					C586.4,257.2,587.8,252.6,588.1,252.7z"/>
			</g>
		</g>
		<g>
			<g>
				<path class="st3" d="M571.8,259.1c-0.3-0.1,0.3-2.8,1.3-6s2.1-5.7,2.4-5.6c0.3,0.1-0.3,2.8-1.3,6
					C573.1,256.7,572.1,259.2,571.8,259.1z"/>
			</g>
		</g>
		<g>
			<g>
				<path class="st3" d="M559.7,253.2c-0.3-0.1,0.7-2.5,2.1-5.3c1.4-2.8,2.8-4.9,3.1-4.8c0.3,0.1-0.7,2.5-2.1,5.3
					S560,253.4,559.7,253.2z"/>
			</g>
		</g>
		<g>
			<g>
				<path class="st3" d="M543.9,251.4c-0.2-0.2,1.6-3.1,4.2-6.4c2.6-3.4,4.8-5.9,5.1-5.8c0.2,0.2-1.6,3.1-4.2,6.4
					C546.4,249,544.1,251.6,543.9,251.4z"/>
			</g>
		</g>
		<g>
			<g>
				<path class="st3" d="M491.5,381.6c-0.1,0.1-1.3-1-3.5-2.6c-2.2-1.5-5.4-3.3-9.3-4.5c-3.9-1.1-7.6-1.4-10.3-1.3
					c-2.7,0.1-4.3,0.4-4.4,0.2c0-0.1,1.6-0.7,4.3-1s6.6-0.2,10.7,1c4,1.2,7.4,3.2,9.5,4.9C490.6,380.1,491.6,381.5,491.5,381.6z"/>
			</g>
		</g>
		<g>
			<g>
				<path class="st3" d="M480.1,354.4c0.1-0.1,1.5,0.9,3.4,3s4.2,5.3,6,9.2c1.8,4,2.6,7.8,2.9,10.6c0.3,2.8,0.1,4.6,0,4.6
					c-0.4,0-0.4-7-3.9-14.8C485.1,359.3,479.8,354.6,480.1,354.4z"/>
			</g>
		</g>
		<g>
			<g>
				<path class="st3" d="M529.3,448.8c0,0-0.3-0.4-0.8-1.3c-0.6-1-1.3-2.2-2.2-3.8c-2-3.4-4.7-8.3-8.1-14.2
					c-6.9-12.2-16.3-29.1-27-48.1L491,381l0.3-0.3c2.6-2.8,5.4-5.7,8.3-8.7c17.1-17.8,32.5-34,43.7-45.8
					c5.6-5.8,10.1-10.5,13.3-13.8c1.5-1.6,2.8-2.8,3.7-3.7c0.8-0.8,1.3-1.3,1.3-1.2c0,0-0.4,0.5-1.2,1.4c-0.9,1-2,2.2-3.5,3.9
					c-3.2,3.4-7.6,8.2-13.1,14c-11.2,11.8-26.5,28.1-43.5,46c-2.8,3-5.6,5.9-8.3,8.7l0.1-0.6c10.6,19.1,19.9,36.1,26.7,48.3
					c3.3,6,5.9,10.9,7.8,14.4c0.9,1.6,1.5,2.9,2.1,3.9C529.1,448.4,529.3,448.8,529.3,448.8z"/>
			</g>
		</g>
		<g class="st14">
			<g>
				<path d="M508.9,362.9l15.2,10.9c1.7-0.7,4.4-3.2,5.5-4.7c11.4-15.9,19.8-34,24.6-53L508.9,362.9z"/>
			</g>
		</g>
		<g>
			<g>
				<path class="st4" d="M530.8,339c-0.2,0.1,0.1-3.5-2.5-8.1c-1.3-2.3-3.3-4.7-6-6.8s-6.2-3.9-9.9-5.4s-7.5-2.5-10.8-3.9
					c-3.3-1.3-6.2-3.1-7.9-5.2c-1.8-2.1-2.7-4.2-2.9-5.7s0-2.4,0-2.3c0.1,0,0.1,0.8,0.4,2.3c0.4,1.4,1.2,3.4,3.1,5.3
					c1.8,1.9,4.5,3.5,7.7,4.8c3.2,1.2,7,2.3,10.8,3.8s7.3,3.4,10.1,5.6c2.8,2.2,4.8,4.9,6.1,7.3c1.3,2.4,1.7,4.6,1.9,6.1
					C531,338.1,530.9,339,530.8,339z"/>
			</g>
		</g>
		<g>
			<g>
				<path class="st4" d="M600.5,348.5c0,0.1-1-0.1-2.8-0.2c-1.8-0.1-4.5-0.2-7.7,0c-3.3,0.2-7.1,0.8-11.4,1.4
					c-4.3,0.6-9,1.3-14.1,1.4c-5,0-9.9-0.8-14-2.7c-4-1.9-7-4.7-8.9-7.5s-2.6-5.5-2.7-7.3c-0.1-0.9-0.1-1.6,0-2.1
					c0-0.5,0.1-0.7,0.1-0.7c0.1,0,0,1,0.3,2.8s1.1,4.3,3,6.9c1.9,2.6,4.8,5.2,8.7,7s8.6,2.5,13.5,2.5c5,0,9.7-0.7,13.9-1.3
					c4.3-0.6,8.2-1.1,11.5-1.2c3.3-0.1,6,0,7.8,0.3C599.5,348.1,600.5,348.4,600.5,348.5z"/>
			</g>
		</g>
		<g>
			<g>
				<path class="st4" d="M614.8,328.6c0.2,0.1-2,4.1-6.5,7.4c-4.4,3.3-8.9,4.3-8.9,4c-0.1-0.3,4-1.7,8.3-4.9
					C612,332,614.5,328.4,614.8,328.6z"/>
			</g>
		</g>
		<g>
			<g>
				<path class="st4" d="M620.9,343c0.2,0.1-2.8,5-8.6,9.1c-5.7,4.1-11.4,5.3-11.4,5.1c-0.1-0.3,5.2-2,10.8-6
					C617.2,347.2,620.6,342.8,620.9,343z"/>
			</g>
		</g>
		<g>
			<g>
				<path class="st4" d="M603.3,372.3c-0.1,0.3-4.3-3.1-12.4-3.9c-4-0.4-8.8-0.3-14.2,0s-11.3,0.6-17.6-0.1
					c-12.5-1.3-23.2-5.7-30.2-9.8c-3.6-2-6.2-4-8.1-5.4c-1.8-1.4-2.7-2.3-2.7-2.3c0-0.1,1.1,0.7,2.9,2c1.9,1.2,4.6,3.1,8.2,5
					c7.1,3.9,17.7,8.1,30,9.4c6.1,0.7,12,0.5,17.4,0.2s10.3-0.3,14.3,0.2c4.1,0.5,7.3,1.7,9.3,2.7c1,0.5,1.8,1,2.3,1.4
					C603.1,372.1,603.3,372.3,603.3,372.3z"/>
			</g>
		</g>
		<g>
			<g>
				<path class="st4" d="M522.1,346.2c0.1,0-0.1,0.5-0.5,1.5l-0.1,0.4l-0.2-0.4c-0.7-1.6-2.7-4.8-6.9-7.1c-2-1.2-4.5-2.1-7.3-2.9
					c-2.8-0.8-5.8-1.5-8.9-2.6c-7.7-2.8-13.5-7.7-16.9-11.7c-1.7-2-2.9-3.8-3.6-5.1c-0.7-1.3-1.1-2-1-2.1c0.2-0.1,1.7,2.8,5.2,6.6
					s9.2,8.5,16.7,11.2c3,1.1,6,1.8,8.8,2.7c2.8,0.8,5.4,1.9,7.4,3.1c4.3,2.5,6.3,6,6.8,7.7h-0.3
					C521.8,346.6,522.1,346.2,522.1,346.2z"/>
			</g>
		</g>
	</g>
</g>
</svg>
